<?xml version="1.0" encoding="UTF-8"?>
<svg viewBox="0 0 744.09447 1052.362179" xmlns="http://www.w3.org/2000/svg" xmlns:xlink="http://www.w3.org/1999/xlink">
 <defs>
  <linearGradient id="a">
   <stop stop-color="#fb506d" stop-opacity=".15294" offset="0"/>
   <stop stop-color="#fb506d" stop-opacity="0" offset="1"/>
  </linearGradient>
  <radialGradient id="b" cx="160.66" cy="356.91" r="10.572" gradientTransform="matrix(1 -2.0166e-17 8.9129e-17 .83059 -1.3507e-14 60.465)" gradientUnits="userSpaceOnUse" xlink:href="#a"/>
  <radialGradient id="d" cx="160.66" cy="356.91" r="10.572" gradientTransform="matrix(1 -2.2129e-16 -1.3058e-16 .83059 4.8371e-14 60.465)" gradientUnits="userSpaceOnUse" xlink:href="#a"/>
  <radialGradient id="c" cx="160.66" cy="356.91" r="10.572" gradientTransform="matrix(.96911 -.48484 .08518 .35759 -25.438 307.17)" gradientUnits="userSpaceOnUse" xlink:href="#a"/>
 </defs>
 <path d="m536.3 504.71 21.213 29.698s16.263 38.891 32.527 50.205c1.4142 1.4142 33.49 34.963 36.77 34.648 14.142 9.1924 8.4853 37.477 28.284 45.255s19.445 3.5355 19.445 3.5355 8.9601 1.1508-2.4749-17.678c2.8284-8.4853 6.364-38.891-11.314-70.004 3.5355-5.6569-2.4749-19.092-14.849-48.79-2.1213-9.1924-7.7782-38.891-7.7782-38.891l-9.1924-24.749c-4.2426-0.70711-45.255-60.104-60.104-86.621l-50.912 73.893 18.385 49.497z" fill="#fff"/>
 <g transform="matrix(1.0965 -.063292 .068952 1.4299 -91.789 -214.79)">
  <path d="m346.81 691.11c-15.456 2.7997-29.168 14.61-27.545 24.662 49.554 0.66219 92.87 0.3311 142.42 0.9933 2.9194-0.38618 1.0606-8.8496-1.717-8.8846-2.1314-9.0303-5.0457-9.2458-9.7184-10.981-9.7604-3.2559-7.9431-2.5886-22.114-2.8594-19.752-2.6488-57.418-4.2544-81.328-2.93z" display="block"/>
 </g>
 <path d="m402.78 574.54c-2.7194 0.73373-12.996 42.592-13.286 78.147s9.409 64.809 9.5522 106.17c19.929-4.2248 31.088 12.819 58.602 7.1252-6.2503-31.743-22.757-63.81-22.965-102.65s15.88-85.858 19.506-87.997c-7.9872-6.9528-50.839 2.1618-51.409-0.80074z" display="block" fill="#141322" stroke="#000" stroke-width="5.059"/>
 <g transform="matrix(1.0965 -.063292 .068952 1.4299 9.1784 -213.38)">
  <path d="m346.81 691.11c-15.456 2.7997-29.168 14.61-27.545 24.662 49.554 0.66219 92.87 0.3311 142.42 0.9933 2.9194-0.38618 1.0606-8.8496-1.717-8.8846-2.1314-9.0303-5.0457-9.2458-9.7184-10.981-9.7604-3.2559-7.9431-2.5886-22.114-2.8594-19.752-2.6488-57.418-4.2544-81.328-2.93z" display="block"/>
 </g>
 <path d="m473.71 536.53c-12.639 2.6701-18.609 107.8-15.739 130.53s26.602 69.993 29.455 85.687c20.857-4.2248 40.399 25.273 85.529 24.568-22.641-48.672-46.642-76.068-57.303-114.51-13.943-50.276 6.8537-141.8 7.0023-143.31-1.9604-0.71801-43.508 25.234-48.945 17.034z" display="block" fill="#141322" stroke="#000" stroke-width="5.059"/>
 <path d="m316.43 433.81c-2.2204 13.313-14.048 78.445-17.09 119.49 21.566 9.211 36.417 4.4376 45.784 4.4053 11.013-38.705 28.377-118.28 17.785-120.93" display="block" fill="#141322" stroke="#000" stroke-width="4.053"/>
 <g transform="matrix(.54277 -.22854 .19557 .53764 522.77 41.24)">
  <path d="m-397.77 509.69-23.893 235.9" display="block" fill="#fff" fill-opacity=".25101"/>
  <g transform="matrix(1.9089 -.2524 .22726 1.7188 -1547.2 -236.61)">
   <path d="m480.73 455.82 11.172 10.147 19.799-37.987 22.436 29.684-20.796 85.581-37.036-69.36 4.4246-18.066z" display="block" fill="#fff" stroke="#000" stroke-width="3.7913"/>
   <path d="m492.76 464.79 30.347 27.618" display="block" fill="#fff" stroke="#000" stroke-width="3.7913"/>
   <path d="m491.09 465.27-6.6744 24.794" display="block" fill="#fff" stroke="#000" stroke-width="3.7913"/>
   <path d="m493.8 464.78-6.6724 11.591 8.0521 7.8854-0.04868 26.117 15.319 31.013 6.8933-13.716-18.555-46.068 3.9043-9.884-8.8932-6.9382z" display="block"/>
  </g>
  <path d="m-448.32 532.32c-11.237-4.2138-78.44-64.126-84-71.439-1.8698 7.1146-15.297 14.598-23.215 31.556 5.5858 35.418 64.578 187.98-8.856 353.4 61.861 40.027 108.09 41.755 128.75 34.989-5.7521-113.73-5.5324-305.99-12.676-348.5z" display="block" fill="#141322" stroke="#000" stroke-width="6.5124"/>
  <g transform="matrix(2.6786 -.59113 .82815 2.336 -2025.3 -693.68)">
   <path transform="matrix(1.0405 -.073556 .1043 1.2728 -95.539 -63.759)" d="m407.5 562.05a4.0625 3.75 0 1 1 -8.125 0 4.0625 3.75 0 1 1 8.125 0z" display="block" fill="#ff9800"/>
   <path d="m381.35 617.78 0.75201-6.1954 1.8251 5.9307-2.5771 0.26471z" display="block" fill="#ff9800"/>
   <path transform="matrix(1.1486 -.25316 .24188 1.0974 -135.15 85.728)" d="m333.45 565.45z" display="block" fill="#fff" fill-opacity=".20243"/>
  </g>
  <path d="m-533.46 463.92c-51.288 222.13-14.885 305.41 110.25 91.54 2.6585 40.546 2.8346 51.696-4.3068 72.471-74.986 168.47-238.3 112.59-105.94-164.01z" display="block" fill="#ff9800" stroke="#000" stroke-width="8.5102"/>
  <path d="m-443.61 392.33c65.598-7.75 119.33-3.0356 135.41 9.7264 48.362 38.395 55.745 383.35 46.389 496.15-48.274 29.648-132.72 19.318-209.63-26.353 1.6722-74.174 3.9838-282.96 3.1895-291.77-1.1421-4.0521 24.646-179.53 24.645-187.75z" display="block" fill="#141322" stroke="#000" stroke-width="6.6976"/>
  <g transform="matrix(2.8147 -.32018 .37217 2.4215 -1813.8 -848.93)">
   <path transform="matrix(1.1285 .36825 -.48183 1.3566 222.67 -288.4)" d="m407.5 562.05a4.0625 3.75 0 1 1 -8.125 0 4.0625 3.75 0 1 1 8.125 0z" display="block" fill="#ff9800"/>
   <path d="m406.94 617.18 2.3654-6.2178 0.0274 7.2239-2.3928-1.006z" display="block" fill="#ff9800"/>
   <path transform="matrix(1.1486 -.25316 .24188 1.0974 -141.62 87.361)" d="m359.08 571.42a1.9887 2.5412 0 1 1 -3.9775 0 1.9887 2.5412 0 1 1 3.9775 0z" display="block" fill="#fff" fill-opacity=".20243"/>
  </g>
  <path d="m-345.28 441.03 28.686-41.268-74.661-8.6692-27.064 12.975 10.624 26.723 62.416 10.239z" display="block" fill="none" stroke="#000" stroke-width="7.5488"/>
 </g>
 <path d="m444.77 507.36c6.1872-14.849 18.365-39.891 30.297-55.889 19.232-12.351 48.015-23.307 59.859-28.964l-79.903 103.59-10.253-18.738z" fill="#fff" stroke="#000" stroke-width="4.529"/>
 <path d="m477.91 387.87c5.7966 2.0122 1.5919 1.0022 20 8.9992 15.922 6.9167 3.8184 15.628 0.77682 56.676 21.566 9.211 41.98 14.413 51.347 14.381-2.8947-52.67 7.792-103.53-7.9257-111.74-31.218-16.301-99.996-26.492-110.59-29.147" display="block" fill="#141322" stroke="#000" stroke-width="4.053"/>
 <path d="m257.96 535.01c2.2981-26.87 13.517-61.18 50.313-67.331 36.533 14.467 36.118 52.939 35.505 61.212 42.445 13.668 75.482 38.744 97.654-15.722 2.1458-0.06418 81.553-40.304 81.553-40.304l6.1616 39.627-33.263-15.137s-5.4636 97.063-47.115 124.9c-27.937 7.3112-81.326-22.661-81.326-31.597s-87.716-4.9457-87.716-4.9457-10.253 41.908-6.6667 52.469c10.037 25.416 20.991 52.235 26.427 53.209 5.2854 1.6247-2.3378-12.354 8.3056-12.998 4.9752-0.84518 6.0549 11.636 0.64778 18.996 5.5 2.5-3.6641 14.553-3.6641 14.553l-9.8197 6.2567-13.591 9.7483c-7.2077 0.71802-12.005-4.23-12.005-4.23l6.7196-14.048-16.293-50.639s-6.8469 5.3067-10.622-10.94 6.151-11.533 6.151-11.533c-1.8876-3.6556-3.0202-50.772-2.6427-74.737-0.37753-10.561 3.8117-18.334 5.2854-26.808z" fill="#fff"/>
 <path d="m505.24 457.43-13.134 8.5952s-8.763 10.901-14.803 18.619c-0.37753 1.2185 2.2083 2.347-1.567 4.784s-12.779 4.9642-12.779 4.9642l-17.744 4.0618s-13.946 14.836 4.1757 27.427 38.142-12.982 38.142-12.982l-0.14133 45.02s-1.0845 15.826 11.81 5.5225c14.26-11.394 10.624-27.05 10.624-27.05s1.3047 10.874 10.743 5.1877 2.4177-9.4136 2.4177-9.4136 0.75506 2.8433 6.418-1.6247 4.7191-14.826 4.7191-14.826 8.4944-21.731-5.8517-44.477c-1.8876-4.8741-6.0405-8.1236-6.0405-8.1236l-16.989-5.6865z" fill="#fff5d0"/>
 <path d="m292.22 573.6s-21.353-1.5751-7.4747 26.998c11.396 23.462 18.153 0 18.153 0s4.8052 16.658 17.085 17.233 8.0086-5.1698 8.0086-5.1698 1.6017 5.7442 11.212 4.5954 11.746-14.361 11.746-14.361 2.1356 5.1698 9.6103 4.021 9.4228-19.309 9.4228-19.309-4.6176-16.305-15.296-15.156-9.6103 9.1908-9.6103 9.1908-4.2712-5.7442-13.348-4.021-11.746 7.4675-11.746 7.4675-3.7374-8.0419-9.6103-8.0419-5.3391 4.5954-5.3391 4.5954l-12.814-8.0419z" fill="#fff5d0"/>
 <path d="m288.17 723.38s-0.43199 20.677 7.4492 18.183 10.663-5.9854 10.663-5.9854 3.2452 0.99756 6.954-1.4963 11.09-2.7366 11.59-5.4866l-15.258-21.687-21.398 16.472z" fill="#fff5d0"/>
 <path d="m349.66 660.27-38.537 44.548s7.0711 20.506 13.081 21.92c2.1213 0.70711 56.922 18.031 56.922 18.031s-14.142-85.206-31.466-84.499z" fill="#fffeeb"/>
 <path d="m359.19 619.67s-9.4382 5.6865-4.5303 9.7483c0-0.40618-1.5101 12.998-1.5101 12.998s-9.1758-9.7544-12.458-4.468c-4.2444 6.8353 11.326 14.622 11.326 14.622s-13.214 7.7174-8.3056 11.779 7.5506 2.4371 7.5506 2.4371l-1.5101 7.3112s-6.0405 11.373-3.7753 13.81-5.2854 4.468-0.37753 9.7483 1.8876 16.247 8.6832 18.684-1.5101 15.435 12.081 14.622c2.2652 0 7.9281 8.1236 7.9281 8.1236l-0.75505 11.779c2.1356 1.7233 10.65-8.5236 5.2854 0.81236-4.6508 8.0936 27.019 32.851 11.703-7.3112 0-1.6247 7.5506 12.998 12.836 2.0309 3.314-6.7368-11.326-15.435-11.326-15.435s15.845 0.88205 0.37753-13.404c3.0202 1.2185 6.7955-6.0927 6.7955-6.0927s3.3978 15.841 10.571 9.3421-2.6427-15.841-2.6427-15.841 9.0607-9.3421-3.3978-13.404c0.37753 0 9.8158-20.715-4.1528-13.81-0.37753-0.40618 1.8876-18.684-4.1528-17.466-3.0202-0.40617-3.0202-19.09-12.836-20.715-3.4894-2.9214-13.214-11.373-13.214-11.373l-10.193-8.5298z" fill="#fff"/>
 <path d="m244.07 716.8-3.2782 7.0538 26.881 8.1119-25.57 5.9958 4.2616 7.7592 12.129-2.8215 2.6225 8.8173 29.176-13.402-3.9338-10.933-8.851 1.0581-2.6225-4.9377-3.2782 1.4108-1.3113-1.7635-26.225-6.3484z" fill="#649e07"/>
 <path d="m100.76 419.15s1.4142-14.142-6.7175-14.142-4.9498 10.253-4.9498 10.253-5.6569-2.1213-8.1317 0.70711 2.6354 4.4712 6.0104 4.5962c0 0-7.4246 3.182-6.0104 5.3033s-3.5355 2.4749-1.4142 5.3033 8.1317 0 8.1317 0v9.1924c-17.46 20.925-64.7 59.751-1.0607 145.66 20.492 25.365 11.667 53.387 11.667 53.387s-3.8891 32.527 35.002 49.851c33.891 14.824-7.4246 41.012-7.4246 41.012s-20.153 17.678 8.1317 8.1317c16.284-9.0459 18.738-16.617 18.738-16.617l27.577 0.35356s22.981-33.234 33.941-35.002c13.46 1.2322 16.617 6.7175 16.617 6.7175s14.496-48.437-1.4142-68.236-56.215-53.387-55.861-60.458 16.263-64.7 16.263-64.7l-89.095-81.317z" fill="#fff"/>
 <path d="m199.19 314.61 12.981 25.937c-6.1872 4.9498-37.022 32.788-16.69 65.839 20.041 32.576 60.268-13.467 63.513-23.941 0-2.4939 24.373 37.536 43.479 28.679 15.016-20.388 14.826-23.692 14.826-23.692l17.762 3.9951 1.6541-38.657s-22.579-19.67-32.752-44.644c0 0.49878 12.136-5.7284 0.75-16.46-10.054-9.4756-10.486 6.9829-10.486 6.9829l-28.743-44.392-66.295 60.353z" fill="#fff5d0"/>
 <g transform="matrix(.40932 -.13232 .12299 .44039 430.46 102.67)">
  <path d="m-464.65 178.61c-82.376 31.299-152.59 49.405-232.18 56.286l20.155 55.441c79.274-10.668 148.64-23.007 228.83-54.488-6.7183-18.48-10.093-38.759-16.812-57.24z" display="block" fill="#0042ba" stroke="#000" stroke-width="7.3347"/>
  <path d="m-520.8 260.8c-27.634 26.582-49.886 50.566-164.44 67.992 4.4525-14.021 4.7159-22.05 8.6464-32.467 36.516-7.038 119.19-25.027 155.8-35.525z" display="block" stroke="#000" stroke-width="7.3347"/>
  <path d="m-461.52 186.74 48.819-60.566-122.9-13.459-201.22 69.043 45.753 67.383c70.005-14.543 142.39-25.054 229.55-62.401z" display="block" stroke="#000" stroke-width="7.3347"/>
  <path d="m-713.64 184.25c7.3533-5.5932 5.6114-15.263 15.65-10.567 0.64329 7.1158 8.9132 14.423 9.5566 21.538 4.2799-3.2825 2.5474-7.1615 3.1173-23.793 25.273 5.4831 24.112 38.223 2.3702 39.297 0.22625 2.9063 0.60419 4.0821 1.0535 6.2518 4.0614 1.2005 17.446 1.6622 19.233 4.7115-3.421 22.613-26.738 29.566-39.021 7.3483-0.27122-3.6187 7.1147-6.9024 9.3238-10.237-0.22634-1.4843-1.9975-2.5333-3.4213-4.475-20.043 5.6584-32.839-24.825-26.632-31.705 5.793 3.6527 13.805 17.517 21.051 17.059-2.973-15.023-2.5013-14.758-12.282-15.429z" display="block" fill="#ff9800"/>
  <path d="m-673.09 292.32c-5.2506 10.841-9.2239 22.243-10.642 34.766 14.938-33.721 37.61-13.882 57.596-40.44-15.043 2.5811-33.466 5.7062-46.954 5.6743z" display="block" fill="#fff" fill-opacity=".40081"/>
  <path d="m-701.34 199.84c-6.8588 1.8061-14.968-11.641-22.452-17.461 3.5117 32.301 19.859 32.97 28.445 30.992l2.7032 4.4822c-2.9575 3.3495-4.102 7.7484-8.8727 10.049 8.3524 13.131 17.57 18.46 29.028 9.953-14.72 0.04998-29.922-62.11-31.178-63.121-3.5419-3.8364-2.5621 6.7343-9.5305 8.2388 14.319 4.9333 11.308 12.4 11.858 16.867z" display="block" fill="#fff" fill-opacity=".20243"/>
 </g>
 <g transform="matrix(.9272 0 0 .99756 -53.233 -9.8058)">
  <path d="m281.4 336.33c-0.22623 3.9076 6.117 14.243 5.1783 16.397-2.3846-1.8148-9.1065-12.375-8.9692-16.346l3.791-0.05142z"/>
  <path transform="matrix(1.8322 -1.5262 1.2491 1.2099 -415.16 154.99)" d="m171.23 356.91a10.572 8.7814 0 1 1 -21.145 0 10.572 8.7814 0 1 1 21.145 0z" fill="url(#d)"/>
  <path d="m302.35 346.4c11.304-11.844 17.372-19.129 25.037-24.524-10.925 4.8986-25.605 20.996-25.037 24.524z"/>
  <path d="m302.29 346.64c-5.5179 4.1287-41.81 10.411-38.229 50.759 2.8558 41.882 36.252 33.648 60.264 11.456 12.903-13.231 14.388-25.252 15.759-30.824 3.327 3.3544-0.5456 17.751-11.534 30.613-25.585 32.075-60.529 27.571-66.861 0.48608-7.0954-47.919 26.197-58.895 30.718-60.316l9.8831-2.1734z"/>
  <path d="m375.94 318.91c-2.7694-5.457-3.9484-8.0069-6.5119-11.68-7.213-9.0953-17.813-29.369-18.135-29.285-1.8352 0.48069 1.1686-0.16568 1.6258-0.89417s20.088 28.253 21.378 31.295c2.6975-25.729 27.43 3.3892 12.91 11.523-1.2219 1.9604 14.933 29.503 35.421 42.479 1.5897 1.0068-0.83777 3.4681-1.425 3.2213-18.24-7.6667-37.599-44.457-37.847-44.536 4.5387-1.054 8.4214-10.148 3.241-16.21-7.3823-9.0266-10.307 4.5732-10.657 14.086z"/>
  <path d="m337.3 391.62c53.249 66.757 53.905 6.4537 66.783-1.4944-8.8383 19.167-15.936 70.272-68.637 3.7424l1.8536-2.248z"/>
  <path d="m361.55 399.92c28.734-7.2457 17.9-26.51 19.696-29.475-4.3891 12.295-2.7966 24.602-19.881 28.026 0 0-20.686-26.054-21.436-17.804l21.621 19.253z"/>
  <path d="m360.73 409.54c14.075 4.6746 31.166-14.088 28.098-31.533-3.0851 28.673-23.712 30.074-25.785 29.054-6.2175-3.3388-7.0296-7.162-8.5854-4.9097-1.3799 1.9977 3.4467 5.0742 6.2726 7.3892z"/>
  <path d="m297.11231,333.93677c.92112-.5794 2.33259.05738 3.53783,1.43336-.46875-.31049-.96221-.465-1.37248-.20689-.65904.41453-.76374,1.50626-.23382,2.43693s1.49475,1.34962 2.15385.93501c.5376-.33817.60032-1.132.35623-1.9166 .03032.05064.06827.08586.09771.13765 1.31332,2.30642 1.41131,4.78712.21894,5.53721s-3.22605-.51308-4.53934-2.81947-1.41135-4.78711-.21892-5.5372z"/>
  <path d="m288.95394,338.71795c.92112-.57941 2.33258.05737 3.53783,1.43336-.46875-.31049-.96221-.46501-1.37249-.2069-.65903.41453-.76373,1.50627-.23381,2.43694s1.49475,1.34962 2.15385.935c.53759-.33817.60032-1.132.35623-1.91659 .03032.05064.06827.08586.09771.13765 1.31331,2.30642 1.41131,4.78711.21893,5.53721s-3.22604-.51308-4.53933-2.81948-1.41135-4.78711-.21892-5.53719z"/>
  <path transform="matrix(2.1261 -.94526 .9155 1.4215 -300.91 45.401)" d="m171.23 356.91a10.572 8.7814 0 1 1 -21.145 0 10.572 8.7814 0 1 1 21.145 0z" fill="url(#c)"/>
 </g>
 <path d="m300.4 295.24c-3.8338 3.8908-0.35833 14.125 5.4947 6.5742-0.19096 0.34585-2.4992 1.2565-3.1917 1.5272 0.86344-1.3139-1.3245-3.8329-2.6476-2.1885-0.06644 0.50919-1.52-0.54475 0.3445-5.9129z" fill-rule="evenodd"/>
 <path transform="matrix(.12065 .23604 -.22571 .1039 262.61 221.45)" d="m202.85 394.75-15.239-6.5189-12.758 10.581 1.4908-16.507-14.006-8.8634 16.16-3.6832 4.1016-16.059 8.4967 14.231 16.541-1.0616-10.909 12.478 6.121 15.403z" display="block" fill="#ff9800"/>
 <path transform="matrix(.12065 .23604 -.22571 .1039 252.71 226.22)" d="m202.85 394.75-15.239-6.5189-12.758 10.581 1.4908-16.507-14.006-8.8634 16.16-3.6832 4.1016-16.059 8.4967 14.231 16.541-1.0616-10.909 12.478 6.121 15.403z" display="block" fill="#ff9800"/>
 <path transform="matrix(.076281 .22383 -.23531 .17228 489.61 238.2)" d="m202.85 394.75-15.239-6.5189-12.758 10.581 1.4908-16.507-14.006-8.8634 16.16-3.6832 4.1016-16.059 8.4967 14.231 16.541-1.0616-10.909 12.478 6.121 15.403z" display="block" fill="#ff9800"/>
 <path transform="matrix(.076281 .22383 -.23531 .17228 478.66 241.26)" d="m202.85 394.75-15.239-6.5189-12.758 10.581 1.4908-16.507-14.006-8.8634 16.16-3.6832 4.1016-16.059 8.4967 14.231 16.541-1.0616-10.909 12.478 6.121 15.403z" display="block" fill="#ff9800"/>
 <path d="m385.99 767.15c-2.7992-1.5588-6.1474-6.1536-7.1785-9.8513-0.3993-1.4319-1.1308-3.2615-1.6255-4.0659l-0.89949-1.4624 0.87759-1.9008c0.48265-1.0454 1.0905-2.7453 1.3508-3.7776 0.55851-2.215 1.909-3.6056 2.9304-3.0174 0.9966 0.5738 1.1672 2.2597 0.54874 5.4228-1.0456 5.3478-0.44131 10.347 1.6452 13.609 2.2842 3.5718 7.0246 3.3984 9.6038-0.35124 0.62984-0.91576 0.76027-1.664 0.75152-4.3117-0.0118-3.5588-0.41125-4.6515-3.6-9.8487-1.2366-2.0156-1.6721-3.1071-1.6721-4.1906 0-2.7699 1.857-2.4876 3.9805 0.60502 1.6309 2.3751 3.4552 3.7631 4.9462 3.7631 1.711 0 3.8402-0.87745 4.5781-1.8868 1.3508-1.8475 0.59035-5.6891-1.5377-7.768-0.95824-0.93612-6.5917-4.6988-8.9492-5.9774-1.6812-0.91177-2.415-1.9816-2.0538-2.9944 0.18074-0.50676 0.52663-0.60163 1.5471-0.42436 4.2043 0.73041 4.1984 0.73061 5.2307-0.14585 1.2833-1.0895 1.2811-2.365-0.00853-4.9094-0.85339-1.6837-1.2244-2.0308-2.6328-2.4638l-2.5503-0.78727c-0.53625-0.1669-1.1251-0.80593-1.432-1.554-0.43351-1.0568-0.72016-1.2705-1.7045-1.2705-1.4597 0-2.3284-0.87656-2.3284-2.3494 0-0.92863 0.21455-1.1938 1.269-1.5681 2.1774-0.77321 3.315-3.241 2.6705-5.7932-0.53312-2.1115-1.2697-2.8324-2.8946-2.8324-1.0708 0-1.5258-0.21896-1.9699-0.94818-0.53497-0.87836-0.52218-1.0786 0.17378-2.7222 0.41314-0.97572 0.7512-2.2327 0.7512-2.7934 0-1.1906-1.4796-2.9434-2.4846-2.9434-1.0427 0-2.616-1.5043-2.616-2.5014 0-1.5008 0.81863-2.2688 2.5177-2.3621 1.1725-0.06444 1.7381-0.3263 2.2489-1.041 0.87744-1.2279 1.256-3.3417 0.83095-4.6401-0.28844-0.88115-0.54273-1.0185-1.8852-1.0185-2.3746 0-2.8556-1.4303-1.5344-4.5628 1.3062-3.0969 0.69268-8.24-1.0139-8.5003-1.262-0.19243-1.8243 0.54826-2.6579 3.501-1.44 5.1007-3.7884 7.2221-5.3201 4.8059-0.6508-1.0266-1.1486-1.5541-3.7158-3.9377-2.8649-2.6598-5.9756-11.835-5.3212-15.695 0.39675-2.3397 3.0035-4.8131 5.0727-4.8131 1.141 0 3.3145 2.0084 4.202 3.8826 0.36694 0.77501 1.1184 3.2169 1.6699 5.4267 0.62598 2.5082 1.1824 4.0177 1.4811 4.0177 0.26315 0 1.0824-0.44102 1.8206-0.9799 2.6402-1.9277 4.8868-1.0638 6.6878 2.5717 0.96687 1.9517 1.2473 3.0543 1.4341 5.6397 0.19374 2.6808 0.39 3.4154 1.184 4.4306 0.60161 0.76922 1.1742 2.2728 1.5565 4.0867l0.6047 2.8698-1.2896 2.7438c-1.4979 3.187-1.5252 3.4637-0.56569 5.7388 0.39639 0.93971 0.72427 2.4699 0.72865 3.4003 0.00911 1.9188 0.48368 3.077 1.6735 4.084 1.2042 1.0191 2.3421 3.827 2.3421 5.7798 0 1.2513-0.38753 2.4644-1.4573 4.5614-0.80151 1.5712-1.4573 3.0646-1.4573 3.3188 0 0.31723 0.4849 0.39204 1.5478 0.23862 2.0153-0.29079 2.958-1.4903 3.4998-4.4528 0.53213-2.9099 1.2475-4.0522 2.5328-4.0443 1.8821 0.01147 2.3419 0.83975 3.1633 5.6996 0.32593 1.9282 0.76198 4.0862 0.96903 4.7958 0.83995 2.8786-0.58186 3.0233-2.1116 0.21498-0.51974-0.95417-1.1302-1.6693-1.3565-1.5893-0.81324 0.2878-0.62915 1.917 0.4212 3.7276 0.58842 1.0143 1.349 2.9541 1.6901 4.3107 0.6917 2.7507 0.45716 4.2344-0.98017 6.2002l-0.78392 1.0722 1.0586 0.81421c3.497 2.6893 6.1149 6.2531 6.5751 8.951 0.19928 1.1682 0.0494 1.9175-0.72377 3.6177-1.5148 3.3312-4.2578 5.2962-7.3932 5.2962-1.6847 0-1.9735 0.67136-1.3586 3.1574 0.97442 3.9394 0.62722 5.9606-1.6918 9.8488-1.4196 2.3801-3.4024 3.4576-6.3572 3.4542-1.238-0.0014-2.6291-0.26246-3.255-0.61101zm-11.588-94.791c-0.31117-3.5849-2.9909-12.258-3.9596-12.816-1.1981-0.68982-2.3983 0.11571-2.6933 1.8077-0.31335 1.7971-0.08197 3.5864 0.92029 7.1164 0.75188 2.6481 0.92891 2.9157 3.0479 4.6056 1.2373 0.98679 2.3965 1.7942 2.576 1.7942s0.22934-1.1175 0.10868-2.5077zm-112.83 81.78c-1.0353-0.55584-1.5813-1.362-2.9413-4.3429-0.91847-2.0132-1.9021-3.8184-2.1859-4.0117-0.85954-0.58527-2.2626-0.41229-4.9997 0.61659-2.8001 1.0525-5.3703 1.2478-6.2832 0.47744-0.71768-0.60562-4.6222-8.7365-4.6115-9.4599 0.01201-0.81251 16.884-3.9111 20.461-4.5374 3.2652-0.5718 3.2576-0.94209-0.03619-1.7582-1.1726-0.29049-22.103-4.5861-23.172-5.6007-0.76442-0.72553 4.7457-12.697 5.7485-11.283 1.1376 1.6046 21.431 10.569 24.717 7.2449-2.0022-4.4518 6.0802-9.0614 6.0802-9.0614 0.21287-5.5848-13.408-51.288-17.411-52.096-7.2077 1.7233-15.98-19.373-4.2339-27.989-0.64244-4.2547-2.1436-70.878-1.7646-72.236 4.3547-21.582 8.135-36.833 12.046-48.42s10.574-28.68 22.335-33.843c4.5077-13.499 26.78-12.782 36.725-4.7237 18.759 16.337 22.078 35.118 24.018 55.355 13.447 6.0871 54.613 18.105 68.888 13.389 14.895-11.359 24.34-31.616 24.851-31.892 1.0224-0.55255 1.2129 2.6443 1.6902 4.1916 0.80614 2.6137 15.694 27.368 46.487-6.1347 6.998 39.421-7.2095 61.181 9.748 54.272 3.0261-1.2328 6.8685-8.1834 8.4731-10.947 2.2693-3.9089 4.4029-8.2841 3.5331-17.409 11.479 25.535 14.158-6.9819 13.251-9.928 2.0317 3.7357 3.0588 7.147 5.3592 5.2573 1.9124-1.5711 3.2566-6.9482 3.0702-10.362-0.11324-2.0729-0.31398-4.3423-0.44607-5.0429-0.20695-1.0973-2.1065-3.39-1.4816-3.39 0.39909 0 2.9431 2.513 3.2495 2.9981 0.45548 0.72113 0.67935 0.80283 1.2285 0.4482 0.48397-0.31254 0.8277-1.1165 0.92928-2.9065 1.8406-32.433-8.2375-40.756-7.5505-40.756 1.6827 0-4.9053-9.2 0.35444-6.1103 15.712 9.5439 10.213 47.662 7.3278 54.332-0.99704 2.3046-1.151 4.0418-0.56083 6.3279 0.32344 1.2528-3.5776 9.3259-3.9972 8.913-0.97879-0.96305-1.2022 2.8735-4.8729 0.27554 1.2658 4.699-6.3895 17.304-13.196 11.082 0.06423 4.722-14.177 28.459-25.017 20.554-0.9993-0.95497-2.2248-1.9116-2.3693-1.6166-18.12 81.009-58.024 71.537-113.79 33.412-0.66779-1.3425-1.5713-1.1866-2.2709 0.39184-0.86215 14.24-15.377 9.8211-17.091 9.6068-0.49497 7.8067-13.384 17.418-23.401 8.6127-4.3052 7.4359-19.191 3.4658-24.328-7.3514-2.8704-1.552-7.9662 16.953-25.386-15.364-5.1002 21.132-5.0579 39.663-4.6952 44.246 0.24854 3.1407 24.713 53.684 25.371 53.684 0.31834 0-0.14029-4.5478 0.35686-6.3886 0.98052-3.6306 2.2186-5.2209 5.1763-6.649 1.9375-0.93541 2.5042-1.0418 4.2785-0.80334 1.713 0.23024 2.2712 0.51814 3.4371 1.7725 1.3515 1.454 1.3894 1.5707 1.3056 4.0135-0.07159 2.0863-1.4177 3.2776-0.75318 4.1866 1.4294 1.9551-1.3587 7.3827-3.3442 8.9347-1.7032 1.3314 1.9665-1.1853 2.6279 0.74749 0.33981 0.99298 0.82717 1.8926 1.083 1.9991 0.63761 0.26555 2.9816-1.4892 6.4692-4.8429 2.2385-2.1525 18.698-24.314 19.686-25.82l1.7964-2.7392-0.08362-2.9237c-0.07108-2.4858 0.04868-3.1665 0.79958-4.545 0.74155-1.3614 2.307-3.0837 4.4632-4.9101 0.65276-0.55305 0.22661-1.3368-1.0965-2.0169-0.64241-0.33019-2.0813-1.4014-3.1975-2.3805-1.5908-1.3954-2.3291-2.4444-3.4158-4.8536-2.3383-5.1842-2.1094-7.7114 0.81773-9.0272 2.6999-1.2136 8.0406 0.29837 10.832 3.0669 0.8402 0.83316 1.6776 1.5149 1.8608 1.5149s0.27368-0.67126 0.20096-1.4918c-0.08918-1.0063 0.05097-1.6552 0.43074-1.9943 0.47774-0.42666 0.78512-0.2454 2.0307 1.1977 1.8029 2.0887 1.9253 3.3369 0.38393 3.915-0.60114 0.22545-1.093 0.55963-1.093 0.74259s0.55607 1.3563 1.2357 2.6074 1.4048 2.9389 1.6116 3.7505 0.79826 2.0157 1.3146 2.6759c1.0494 1.3417 1.2121 2.7599 0.39981 3.4851-0.29638 0.26466-1.8129 0.5336-3.37 0.59764-3.7526 0.15443-7.4633 1.0597-9.0352 2.2042-1.7104 1.2454-2.8712 3.7867-2.3733 5.1957 0.8986 2.5428 4.1942 1.9255 8.0043-1.4993 0.85404-0.76772 1.7833-1.3958 2.0648-1.3958 0.95766 0 1.9693 1.5147 1.9693 2.9485 0 1.1553-0.32049 1.7151-1.9634 3.4297-2.3405 2.4426-3.305 4.9762-2.3044 6.0528 0.5043 0.54257 0.8065 0.5694 2.0173 0.17906 2.0951-0.67525 3.1259-0.56542 3.9667 0.42287 1.1584 1.3617 1.3122 2.4075 0.51107 3.4731-0.65884 0.87636-0.98164 0.94489-5.0179 1.0664-5.1164 0.15403-5.9496 0.62497-5.9582 3.3683-0.00652 2.0971-0.33929 3.3614-0.88479 3.3614-0.66853 0-1.9396-1.6284-2.22-2.8444-0.49595-2.1498 0.13819-3.8975 2.1384-5.8935 1.8712-1.8673 1.8818-1.8914 1.7933-4.0728-0.10051-2.4802-0.42702-3.0876-1.8129-3.3727-1.7893-0.368-2.3508 0.166-5.7597 5.4776-0.71771 1.1183-21.083 27.269-25.476 29.936-2.3989 1.4566-2.8984 2.2871-2.637 4.3844 0.20691 1.6594 3.1133 6.5682 6.0819 10.272 0.9017 1.125 2.1669 2.8652 2.8116 3.867 0.99183 1.5414 1.4091 1.8624 2.7126 2.0866 1.0894 0.18744 1.9196 0.67904 2.8354 1.6788 1.1595 1.2658 1.6952 1.5024 5.1204 2.2619 2.104 0.46656 23.591 4.7412 34.883 10.32 2.7075 1.3376 3.5282 2.6409 2.4617 3.9089-0.86622 1.0298-1.4976 0.99108-3.4681-0.21228-4.9804-3.0419-34.315-10.089-36.609-10.784-3.4287-1.0395-3.5236-1.0155-4.9184 1.2372-1.6862 2.7234-3.1002 3.4896-6.4396 3.4896-1.5224 0-2.73 0.18185-2.8742 0.43284-0.55902 0.97322-3.2961 1.902-5.6301 1.9104-1.9174 0.00698-2.6299 0.19522-3.7007 0.97811-0.72938 0.5332-2.038 1.0844-2.9081 1.2249s-2.4216 0.76253-3.4479 1.3823c-2.3635 1.4274-4.3595 1.4682-7.0051 0.14315-1.0719-0.53689-2.3351-0.97612-2.8072-0.97612-1.3793 0-26.802 14.182-28.219 13.422zm25.701-19.341c-1.5577-2.7804-21.359 6.5581-24.24 7.7566-2.4824 1.0328-2.7415 1.2429-2.8315 2.2958-0.05552 0.64932 0.22669 1.7266 0.64177 2.4498 0.64615 1.1258 0.89173 1.2661 1.9207 1.0974 0.64892-0.10634 27.505-8.2513 24.509-13.6zm-37.454 7.6923c0.75547-0.31852 15.014-5.1706 16.362-5.4381 1.4028-0.27852 20.24-6.9097 20.1-7.1936-1.01-2.0533-36.899 8.5782-40.989 8.7636-1.377 0.06241 1.2957 4.4473 2.5983 4.4473 0.30562 0 1.1738-0.26067 1.9293-0.57929zm46.586-4.0323c0.75104-0.53969 0.77409-1.462 0.07405-2.9627-0.38453-0.82429-0.64868-2.0591-0.587-2.7438 0.09227-1.0241 0.28666-1.2667 1.0954-1.3672 0.80493-0.09995 1.148 0.15891 1.8926 1.4278 1.0108 1.7227 2.7246 3.202 3.7096 3.202 0.87602 0 1.9762-1.1336 1.9762-2.0362 0-0.4064-0.32789-1.4303-0.72865-2.2754-1.2961-2.7334-0.68705-4.6806 1.2964-4.145 0.70785 0.19104 1.1687 0.81002 1.8568 2.4935 1.3208 3.2319 3.046 5.0611 4.2891 4.5479 0.91821-0.37908 0.66668-1.6058-0.65392-3.1893-1.4764-1.7703-1.8632-2.9339-1.3308-4.004 0.67568-1.3584 1.7883-0.94309 3.7824 1.4118 2.2426 2.6482 3.6493 3.4046 5.3537 2.8788 1.4101-0.43514 3.2583-2.2154 3.2583-3.1385 0-0.35553-0.77874-1.7119-1.7305-3.0142s-2.2219-3.051-2.8225-3.8859c-1.9897-2.7661-5.5255-8.1515-6.6978-10.201-1.441-2.5197-2.0532-2.8148-2.7654-1.333-0.74811 1.5565-2.2024 2.7009-3.7814 2.9756-2.5065 0.43603-2.8508 0.74448-3.0601 2.7419-0.29997 2.8634-1.4486 3.8577-4.7397 4.1029l-2.6308 0.19602-1.2791 2.5478c-0.91347 1.8196-1.6374 2.7403-2.5327 3.2213-1.6731 0.89881-1.8454 1.3425-1.414 3.6425 0.20172 1.0756 0.39633 2.3181 0.51385 2.7394 2.083 7.4679 6.7556 6.8147 7.6562 6.1676zm-21.365-14.355c0.2038-1.1513-3.2446 2.4124-3.6018 1.9493-0.41891-0.54307-0.30094-0.816 0.86325-1.9973 0.74166-0.75256 4.832-6.7383 5.452-7.3134 0.99008-0.91815-1.2202-1.2223-1.7859-1.4621-0.35427-0.15024-5.9157 4.9874-5.322 9.0818 0.1763 1.2158-25.535-6.1734-27.132-4.8207-6.0081 5.0872 15.905 8.8049 17.054 9.15 1.9172 0.5758 17.758 4.5001 14.473-4.5876zm10.199-1.2235c0.81491-1.3397-2.6363-4.737-3.1623-6.1032-0.69477-1.8046-2.9542 1.4527-4.5205 3.9478-1.2426 1.9797 0.49351 5.1925 1.7381 6.2458 1.2304 1.0412 5.2789-2.9959 5.9447-4.0905zm7.0278-4.2732c0.14375-0.80314-5.3416-7.5467-6.8629-6.3387-4.4012 3.4948 2.3466 9.3124 3.0655 9.1635 0.33226-0.06883 6.2656-4.0255 3.7974-2.8248zm4.4729-2.3441c1.076-0.84654-1.0403-6.8473-3.971-8.9956-2.6284-1.9266-5.3829 3.9378-2.8671 5.6859 2.2371 1.5544 4.2908 3.4407 5.9417 3.8093 0.11198 0.02503 0.51536-0.19982 0.89639-0.49958zm-12.941-7.1796c6.2226-3.559 9.0753-5.6063 10.164-7.2938 0.58176-0.9022 1.5812-2.1695 2.2211-2.8163 1.1769-1.1896 1.9732-4.2167 1.9732-5.2119-3.964-3.9534-25.331-50.834-26.296-52.429-0.21011-0.17359 3.0488-3.8055-3.4174 0.57907 0.87734-2.049 3.2719-7.2646-8.2902 3.4026 7.1256-10.657 16.708-10.079 0.49322-7.1965 1.5781-2.3668 8.2487-3.2381 9.3908-3.5118 0-1.2823 4.2042-42.15 6.5329-48.323-0.14521-4.2313 4.8371-11.686 5.785-12.588 7.6069-7.2365 19.771-0.36978 23.801 4.601 4.249-5.3906 13.02 2.387 13.896 3.9299 6.6551-7.5185 15.999-9.9478 23.509-3.2765 14.32-20.106 27.675 4.9428 27.675 9.6796 0 2.5978 0.05078 2.7465 1.6958 4.9678 46.919 32.906 83.557 53.981 110.75-32.177 4.6994-2.2199 2.7603-40.412 2.2697-46.457-25.621 30.511-44.029 4.6235-44.84 3.5818-1.226-4.3415-10.589 23.857-24.598 29.234-15.113 4.925-74.191-14.474-82.43-17.91 1.1803-3.7637 8.4369-2.95 8.4083-1.8965-3.0397-30.065-15.27-57.402-42.647-55.814-8.2957 1.949-22.969 9.1721-31.659 23.471s-9.4135 30.816-14.348 65.699c-0.24386 1.135 3.0052 75.848 3.0052 76.161-11.212-2.8704-8.7822 23.784 3.1304 18.879 4.5297 9.4494 17.261 50.188 17.268 52.475 0.00205 0.68522 0.26993 1.5324 0.59528 1.8824 0.82376 0.88623 2.217 0.50297 5.9663-1.6416zm20.034 0.47823c1.1832-1.5338-2.7562-6.4286-6.1985-7.409-1.6267-0.46327-1.7853 0.99632-2.5452 1.8139-1.1203 1.2052 0.04422 6.6023 3.2885 8.4129 2.8743 1.6042 4.7711-1.9309 5.4552-2.8179zm3.8318-4.3078c0.71144-0.76543 2.6513-5.0866 1.5074-5.723-1.2817-0.71316-8.7384-3.374-9.3531-2.7126-0.63414 0.68224 0.1428 5.7561 7.8457 8.4356zm3.257-15.358c-0.64785-0.26745-9.1032-0.21138-9.2143 2.4827-0.02759 0.66907 5.44 3.7481 6.8614 3.7481 0.91473 0 3.24-5.8646 2.353-6.2308zm-3.6072-1.4542c0.74329-0.33408 3.8076-5.1876 2.643-6.4405s-7.7535-0.52655-7.9422 4.7162c-0.01717 0.47657 3.8333 2.3833 5.2993 1.7243zm44.963-39.304c0.64343-0.13846 1.2531-0.48501 1.3547-0.77011 0.23135-0.64872-3.9362-6.915-5.2712-7.9257-0.54324-0.4114-2.0158-1.3202-3.2725-2.0198-2.0643-1.1492-2.39-1.2251-3.3746-0.78628-1.5498 0.69071-1.6942 1.886-0.55203 4.5701 1.2701 2.9848 1.7402 3.4906 4.7542 5.1149 3.7845 2.0395 4.4471 2.2288 6.3614 1.8169zm-4.3438-40.413c0.31879-4.0049 1.6454-11.009-1.1506-17.76-4.1754-21.774-28.672-10.805-24.357 2.5629 0.18489-0.123-0.05881-4.4313 0.27415-5.1862 3.0873-0.70623 12.866-3.4703 15.637-1.4793 3.3915 2.4366 3.8782 3.6604 2.9413 7.3946-4.2504 6.3602-14.49 8.2012-15.806 6.5177-1.3012-1.6638-1.9619-0.74534-1.9619 1.1275 11.691 24.734 24.09 11.019 24.424 6.823zm-24.059 7.0807c1.7866-0.96025 1.7977-2.7993 0.05571-5.9315-0.80198-1.4419-1.6362-3.3532-1.8539-4.2472-0.50247-2.0642-1.2415-2.3697-2.9042-1.2001-1.9477 1.37-12.61-2.1369-12.711-0.05088 3.2403 14.33 16.479 11.932 17.414 11.43zm-22.589-11.862c-2.7e-4 -0.55165-0.24225-2.481-0.53774-4.2874-0.38433-2.3497-0.43857-3.7442-0.19056-4.8996 0.19066-0.88843 0.35067-2.3439 0.35557-3.2344 0.00791-1.4386 0.86531-7.3785 2.961-10.019-14.086-11.625-24.594-7.571-22.81 7.5076 0.25579 0 0.8682-3.6022 1.1978-4.1432 0.87651-1.4393 12.988-0.22532 14.702 0.54509 1.5646 0.70339 2.1363 3.4395 2.1363 4.7461-2.5361 8.9854-14.078 4.4035-15.779 4.4168 5.6218 20.689 18.909 15.371 17.964 9.3685zm54.028 1.0407c17.037 1.7456 12.473-22.972 10.23-23.379-12.578-18.97-20.725-0.67914-19.338-0.92125 1.8518-0.32331 12.723-3.1723 13.236-1.7096 1.2901 3.6812 3.5083 12.442-1.6157 12.442-2.401 0-7.144-0.40199-7.3345 0.64715-1.119 6.1608 3.4401 13.218 4.8232 12.921zm-37.136-3.0521c1.3995-1.1844 1.3111-3.043-0.22836-4.7991-1.4635-1.6695-3.0824-2.201-7.612-2.4986-3.4326-0.22565-3.5405-0.2067-4.463 0.78578-1.6079 1.73-0.33545 5.513 2.0899 5.5608 1.5572 0.03052 9.4828 1.5694 10.213 0.95105zm18.477-6.6002c1.0904-1.576 0.99307-3.6936-0.22144-4.8175-1.1041-1.0218-8.6942 0.61397-11.466 0.30623-1.8443-0.2048-1.6558 7.2202-0.30069 7.2202 0.41256 0 10.435-0.46463 11.988-2.709zm-17.898-8.267c0.12106-6.279-14.074-12.572-15.283 3.6722-0.00157 0.56243 0.18754 0.68114 0.81769 0.51345 4.0525-1.0789 11.076-0.00699 11.962 0.29418 2.6614 0.90568 2.5151-0.56422 2.5032-4.4798zm-22.938 3.9538c0.41047-1.2522-3.5249-4.6601-11.017-4.0614-0.93036 0.90588-0.83403 3.0526 0.17097 3.81 1.1059 0.83326 7.9498 5.4913 10.846 0.25144zm60.538-8.7297c-2.6374-0.19453-7.2073 0.14804-8.0354 0.9851-1.8026 1.822 0.18229 4.1571 4.326 4.5425 10.06 0.93561 6.787-5.3007 3.7094-5.5276zm15.987 169.62c-0.85634-1.1102-0.86993-3.7747-0.03205-6.2902 1.7982-5.3988 1.7509-4.9373 0.59913-5.8464-1.6026-1.265-4.0015-3.8188-4.9098-5.2267-0.76319-1.183-0.96957-1.2742-2.8919-1.2776-1.6354-0.00289-2.4753-0.25368-3.9999-1.1944-3.9938-2.4642-5.8779-5.4296-6.8217-10.737-0.66365-3.7319-0.72755-3.8551-2.9278-5.6443-0.98083-0.79755-2.1735-2.0632-2.6504-2.8125-0.80559-1.2659-0.85142-1.6122-0.64743-4.8902 0.12073-1.9403 0.32097-4.0113 0.44487-4.6023 0.18209-0.86828 0.00743-1.2936-0.9095-2.2151-0.62416-0.62737-1.1348-1.3226-1.1348-1.5449 0-0.5702 1.2353-0.92394 2.2603-0.64712 1.2458 0.33638 2.8089-0.41688 4.4797-2.1586 1.8885-1.9687 3.0032-2.2674 4.3161-1.1563 0.81925 0.69331 0.98512 1.1116 0.89503 2.2568-0.09943 1.2639-0.38276 1.6039-2.8094 3.3708-3.01 2.1916-4.4582 4.2536-5.1424 7.3219-0.53999 2.4217-0.00969 4.1562 1.386 4.5331 1.2672 0.34216 1.8936-0.18794 2.5855-2.188 0.74088-2.1417 1.797-2.666 3.1179-1.5481 1.172 0.99178 1.2171 2.5553 0.20464 7.0783-0.64645 2.888-0.68165 3.6148-0.30953 6.391 0.38677 2.8854 0.55206 3.2946 2.0957 5.1887 1.4237 1.7469 1.869 2.057 2.9609 2.0612 2.842 0.01097 3.6588-1.9584 2.8886-6.9645-1.0394-6.7559-0.86771-8.3175 0.91492-8.3175 1.9793 0 2.8803 2.9834 3.4918 11.562 0.41964 5.8863 1.1057 8.3914 2.5216 9.2066 1.2021 0.69221 2.5601-0.40681 2.5601-2.0719 0-2.6529 2.0358-3.9295 3.4957-2.1918 1.0643 1.2668 0.86666 4.5193-0.53303 8.7703-0.63765 1.9365-1.6061 4.2134-2.1521 5.0598-0.78067 1.2102-1.0316 2.1327-1.1749 4.3186-0.16019 2.4445-0.27386 2.7937-0.94268 2.8965-0.41828 0.06424-0.97124-0.15632-1.2288-0.4902zm33.532-28.54c-1.4057-0.77171-1.2405-1.2148 0.76472-2.0521 2.6025-1.0866 3.3991-2.3617 3.3852-5.4184-0.01524-3.3386-0.77358-6.6678-1.7868-7.844-0.46688-0.54198-1.565-1.1869-2.4401-1.4331-3.049-0.8577-3.3399-0.98769-3.7376-1.6693-0.67972-1.165 0.17338-2.0058 2.4812-2.4452 2.4192-0.46068 3.7228-1.5919 4.0594-3.5225 0.34065-1.9535 0.09909-2.6344-1.2925-3.6433-1.1166-0.80962-1.5295-0.88684-3.5158-0.658-2.1349 0.246-2.282 0.2078-2.8601-0.74148-0.68769-1.1292-0.47566-1.8015 1.3376-4.241 1.137-1.5297 2.9449-7.8104 2.6331-9.1472-0.30792-1.3199-1.5086-2.5492-2.49-2.5492-0.55316 0-1.2866 0.55864-2.0807 1.5847-3.0394 3.9277-3.1724 4.0394-4.0597 3.4088-1.0307-0.73261-1.2689-3.2806-0.46328-4.9566 0.79837-1.661 1.9657-7.1394 2.2185-10.412 0.18162-2.3509 0.10325-2.9434-0.53319-4.03-1.0837-1.8503-2.542-1.5844-3.6622 0.66757-0.54303 1.0916-1.7753 1.2539-2.62 0.34505-0.65469-0.70428-0.70799-1.0983-0.48652-3.5966l0.24872-2.8056-1.1054 1.2739c-0.60795 0.70069-1.4291 1.2739-1.8248 1.2739-2.0373 0-2.8245-1.2608-2.1961-3.5176 0.76941-2.763-0.97959-3.6404-3.5359-1.774-1.5356 1.1212-1.9337 1.1849-2.8583 0.45748-0.53766-0.42296-0.68208-1.1594-0.75858-3.8683-0.10941-3.8737-0.36939-5.0164-1.1413-5.0164-0.44524 0-0.5052 0.31034-0.30563 1.5814 0.42098 2.6808-1.1851 3.6489-2.9333 1.7681-1.8381-1.9777-0.60376-6.5975 2.2025-8.243 1.7122-1.004 2.0022-2.1832 1.1203-4.5546-1.0945-2.943-2.2852-4.5745-3.5582-4.8754-0.65702-0.15522-1.5858-0.55804-2.0639-0.89501-0.80303-0.56612-0.90745-0.55654-1.3715 0.12629-0.52238 0.76862-0.68865 2.5954-0.52758 5.7959 0.10521 2.091-0.38786 3.0247-1.5973 3.0247-1.5075 0-2.4477-3.6115-2.3325-8.9591 0.05949-2.7622-0.07709-3.757-0.73958-5.3865-0.90184-2.2182-3.31-4.982-4.9016-5.6258-0.92957-0.37598-1.1423-0.29448-2.0949 0.80264-0.5831 0.67156-1.0602 1.3787-1.0602 1.5716 0 0.79675-1.1382 0.27353-1.4744-0.67775-0.51173-1.4482-0.06773-3.4772 1.016-4.6432 0.72314-0.7781 1.2889-0.99208 2.6226-0.99208 2.4325 0 4.5422 1.5784 7.2783 5.4455 1.5576 2.2014 2.5451 3.2409 3.2313 3.4014 3.0154 0.70508 4.8435 1.5376 5.8426 2.6607 1.263 1.4196 4.8002 7.5739 4.8002 8.3516 0 0.2878 0.31413 0.8612 0.69808 1.2743 0.53603 0.57679 1.0297 0.70328 2.1266 0.54497 1.9125-0.27603 3.369 0.58327 5.1902 3.0621 2.6879 3.6585 3.9704 6.6169 4.8485 11.185 0.44953 2.3384 0.93248 4.4488 1.0732 4.69s0.92687 0.55385 1.747 0.695c1.1275 0.19393 1.9229 0.72104 3.2614 2.1611 2.1953 2.3619 2.6388 3.9242 2.1803 7.6805-0.18425 1.5091-0.34036 3.4053-0.34691 4.2137-0.01141 1.4088 0.03887 1.4699 1.2093 1.4699 1.5268 0 3.3094 1.2693 4.8658 3.4646 1.4943 2.108 1.5465 3.6184 0.29313 8.4932-0.49844 1.9388-0.9083 3.74-0.91081 4.0026s0.87831 1.1793 1.9573 2.0369c3.4744 2.7614 4.3144 6.2143 2.5863 10.632l-0.91672 2.3433 0.70661 1.4902c1.7859 3.7662 2.5032 11.32 1.3516 14.233-0.84766 2.1446-2.5192 3.4779-4.3514 3.4709-0.83623-0.0032-1.9174-0.22366-2.4025-0.48991zm-15.587-69.569c-0.39798-2.7781-1.8103-6.28-3.5761-8.8673-2.9327-4.2973-4.0555-3.9536-4.2452 1.2992l-0.11953 3.3092 2.1219 0.46387c2.25 0.4919 4.1503 2.0205 5.205 4.187 0.70876 1.4559 0.86447 1.3565 0.61396-0.39195zm-47.397 40.589c-0.66854-0.71924-0.536-4.2603 0.2047-5.4685 0.35045-0.5717 1.4241-1.8277 2.3858-2.7914l1.7488-1.7521 3.837-0.18355c4.6278-0.22146 5.3302 0.14076 5.3302 2.7493 0 2.9876-0.6093 3.2142-4.888 1.8182-1.1388-0.37159-2.4673-0.55983-2.9776-0.42207-1.516 0.4094-3.1698 2.2018-4.0844 4.4269-0.47333 1.1515-0.91882 2.0937-0.98997 2.0937s-0.32607-0.21169-0.56652-0.47036zm16.951-58.231c-4.5792-4.3813-5.2107-4.8034-7.031-4.6997-1.5961 0.09098-1.7421 0.01906-2.0726-1.0207-0.28756-0.90469-0.21612-1.3168 0.37366-2.1558 0.63916-0.90918 0.97055-1.0315 2.6843-0.99038 2.6217 0.06284 5.0343 1.4883 7.6932 4.5454 1.6242 1.8674 2.0949 2.6833 2.0949 3.6314 0 2.5471-1.5103 2.8255-3.7424 0.68982zm99.058-117.75c-1.3039-0.4073-3.5834-3.2173-4.584-5.6511-0.57701-1.4034-6.3853-10.796-6.3109-11.329 0.18311-1.3109-5.5358-0.87989-6.9585 0.21004-1.0951 0.83905-5.3664-4.6759 7.6072-5.1129 11.605-0.78525 21.928-6.3242 25.478-8.5581 2.7806-2.6913 7.7415-24.023 29.807-30.04 1.0175-1.7776 3.5548-0.97565 2.5697 0.52857-21.638 8.989-26.051 31.447-30.567 32.438-3.9273 4.2628-16.696 5.1887-24.058 9.4536-0.00362 3.3609 5.2033 16.697 8.9139 14.794 4.3583-10.928-7.4643-14.842-6.0648-15.016 1.2555-0.15602 6.4685-1.3802 7.9136 3.1864 2.6024 4.2388 6.12 13.907-3.7469 15.096z"/>
 <path d="m473.15 494.19s3.7753 5.8896 6.418 7.5143c2.6427 0-3.0202-7.7174-6.418-7.5143z"/>
 <path d="m475.41 493.91s3.6991 3.293 5.9032 3.8919c1.9535-0.51069-3.4229-4.6872-5.9032-3.8919z"/>
 <path d="m101.51 424.28c-0.28025-2.8851-1.0826-5.7214-1.9708-8.459-0.98867-2.9084-2.1866-5.6725-3.9964-8.0682-3.3417-1.9211-2.405-1.1587-3.3286-0.88922-2.5512 1.4102-2.926 3.4403-2.6284 6.2267 1.0243 2.1285 2.4727 3.9627 3.6039 6.0158 2.4619 4.032-1.5944 2.0405-3.2767 0.13027-1.6686-1.7861-3.2737-3.464-5.5407-4.1212-0.26511-0.19199-2.0032-0.69223-2.8251 3.0667 1.0039 2.6943 4.4631 1.6907 6.769 2.0928-2.0487 1.5207-5.4428 2.9531-7.2154 5.1738 2.1266 0.70246 0.54031 0.32072 4.6899 0.10529-2.5608 1.1516-4.5912 2.4999-4.6184 5.3465 3.6226 1.6502 1.1891 1.8841 4.8832-0.18199 4.8434-1.227 2.8978 2.4179 2.522 5.7646l0.03289 0.52802-2.1846 0.1634c-0.01094-0.18212-1.3331-0.18788-1.3441-0.36999 0.33955-3.0462 0.75242-5.7435 2.506-5.2751-2.8024 1.63-6.92 2.5568-9.423 0.11596 0.02377-2.9549 1.9689-5.2902 4.6003-6.5893 6.2344-0.70161-2.9864 2.9373-4.6863 0.64845 1.4441-2.3872 4.9172-3.726 7.4033-4.4754-2.3756-0.32118-6.7698-0.30728-7.5974-3.2503 0.54469-4.0213 4.6802-4.7656 8.1478-4.4019 2.2371 0.79009 4.3628 3.5191 6.0315 5.3278 3.0196 3.2716 0.12832 3.563-1.0504 0.46854-1.1556-2.0537-2.6216-3.9038-3.6097-6.0694-0.45471-2.8491-0.17621-6.8254 2.2964-8.3284 2.5994-0.89363 6.6335-1.6064 8.8377 0.33089 1.7815 2.4514 2.1701 7.3568 3.1579 10.291 0.89289 2.7692 1.6892 5.6247 2.0355 8.5327l-2.2211 0.15035z"/>
 <path d="m571.81 390.67c-2.1803 42.773 9.6226 59.057 16.762 73.079 1.2073 1.1171 8.047 15.039 13.907 22.693 5.6963 7.8775 10.728 16.263 16.076 24.41 6.5486 9.4455 12.522 19.323 19.119 28.735 5.3184 7.669 10.438 15.547 15.188 23.641 2.749 5.237 5.8267 10.31 8.2855 15.718 1.7506 4.202 25.861 46.01 9.4857 73.944 0.14201 0.83632 7.4797-31.132-9.9831-69.265-2.3892-5.4446-5.524-10.484-8.2272-15.748-4.6947-8.1499-9.8806-16.012-15.14-23.744-6.6413-9.3625-12.551-19.272-19.146-28.663-5.3199-8.166-12.708-16.522-18.354-24.436-5.8885-7.6396-25.553-42.102-30.911-65.26-0.78974-5.623-0.58537-22.326 2.2417-30.374l0.69629-4.7298z"/>
 <path d="m536.71 502.73c5.5307 12.129 20.527 19.674 24.124 33.307 7.024 17.147 15.106 35.868 31.236 45.049 8.7419 10.004 15.301 22.787 27.112 29.157 10.129 6.6847 21.53 16.236 21.215 30.38 0.87844 11.843 11.041 19.908 20.973 22.82 7.2145 7.0262 18.773-1.4313 11.644-10.267-2.5907-4.3881 1.5694-7.2067 2.6284-1.5592 5.5281 6.7544 3.2721 24.011-7.5809 18.655-11.768-3.2788-25.197-9.3586-29.021-23.037-2.836-9.4365-3.5588-21.857-13.047-26.623-9.8471-3.5848-18.266-10.959-23.726-20.433-9.0095-11.394-19.903-20.8-30.245-30.683-6.5975-8.8568-6.4866-21.555-14.042-29.797-6.6024-9.6971-14.699-22.564-21.62-31.964-0.37942-1.6694 0.01843-3.3734 0.34997-5.0049z"/>
 <path d="m571.23 396.91s39.916 70.788 53.762 84.646c14.563 14.575-1.9669 21.161 33.437 91.7-17.472-22.476-66.219-100.87-66.219-100.87-5.9007-2.8215-26.881-52.904-20.98-75.476z" fill-opacity=".12146"/>
 <path d="m550.07 403.38c3.2165-2.9671 5.6193-6.5893 7.8625-10.402 2.8046-3.8586 5.7474-7.481 8.0678-11.702 3.2819-3.538 5.2047-1.6183 7.3213 1.9251 2.2002 3.9555 4.4235 7.8953 6.9374 11.628 2.444 3.9666 4.8514 7.9445 7.4494 11.8 3.3137 5.1615 5.8998 10.789 8.7811 16.223 3.4848 6.5193 7.9927 12.283 11.683 18.656 4.7682 8.1489 12.74 14.771 19.092 21.558 4.475 4.0588 4.8063 10.441 7.1749 16.063 2.3361 5.77 5.7482 12.675 6.8936 18.811 1.9278 15.716 8.076 38.313 9.6738 42.261 1.9828 4.42 5.7641 17.841 8.0921 22.037 2.2668 3.4512 4.5116 14.676 3.1764 21.368 0 0-9.7146-34.332-11.776-38.718-1.6301-3.957-5.0504-7.9857-6.1283-12.147-0.99795-4.9457-4.5954-25.384-5.9468-30.86-1.097-6.1313-2.2112-12.319-4.4996-18.091-2.3104-5.6038-4.8942-11.011-9.3147-15.075-6.3505-6.8149-12.034-14.438-16.873-22.556-3.6827-6.3795-8.1735-12.152-11.678-18.659-2.899-5.4027-5.4958-11.011-8.7733-16.178-2.5991-3.8525-5.0261-7.8143-7.4404-11.797-2.552-3.7122-4.7448-7.6735-6.9769-11.618-1.9835-3.4594-3.3054-5.2791-6.4453-1.9193-2.3256 4.2146-5.3415 7.7633-8.0459 11.69-2.2831 3.8329-4.7927 7.4041-7.9572 10.472l-0.34893-4.77z"/>
 <path d="m571.66 429.09c14.734-4.9358 31.66-7.2704 46.395-12.206-0.44266 2.9732-0.65351 3.2031-1.0962 6.1763-19.353 7.4126-26.452 15.108-40.991 18.443-1.0779-1.7658-4.3549-9.4824-4.3071-12.413z" fill="#fff" stroke="#000" stroke-width="3.159"/>
 <path d="m571.65 404.34c11.376-9.2181 17.976-8.5882 29.352-19.806 0.77669 2.8928-4.4734 7.5314-3.6967 10.424-11.793 8.0731-10.627 8.3978-26.486 27.967-0.63787-4.6656-1.7834-12.692 0.8304-18.585z" fill="#fff" stroke="#000" stroke-width="3.159"/>
 <path d="m604.03 422.5c4.5491-27.948 29.847-68.507 63.319-77.274 17.286 3.8153-36.017 62.254-36.017 62.254-3.774 3.7235 0.44262 9.6729-9.9574 30.375-3.79 5.8395-15.716 5.2392-20.276-5.4116 0 0-0.44414-3.0599 2.9313-9.9442z" fill="#fff" stroke="#000" stroke-width="3.559"/>
 <path d="m669.14 347.07c-28.856 24.43-33.59 32.819-48.214 56.362-4.2661 10.953-7.2773 20.883-6.954 31.836 1.6999 3.3252 7.5721 1.2494 9.7356 1.0832 0 0 5.8585-16.971 6.4904-28.929 0.49466-9.3606 44.506-38.406 38.942-60.353z" fill-opacity=".1336"/>
 <path d="m597.86 385.8c2.0862-9.2274 47.187-54.709 81.479-51.17 15.165 9.7083-46.06 45.089-46.06 45.089-4.7009 2.1845-9.4868 10.291-25.626 26.174-3.0012 2.9479-12.861-1.1948-14.754-4.2012l4.9608-15.892z" fill="#fff" stroke="#000" stroke-width="3.659"/>
 <path d="m407.83 548.15c-5.0479-0.7795-9.2164 10.671-4.2217 23.307-0.81888-6.6612 3.4424-19.367 4.2217-23.307z" fill-opacity=".26721"/>
 <path d="m410.03 548.05c-3.4852 1.1526-2.9414 10.044 3.8644 16.693-2.4144-4.1032-3.2537-13.85-3.8644-16.693z" fill-opacity=".26721"/>
 <path d="m624.24 406.37c-0.81944 1.8284 2.1001 4.3674 6.4392 3.5679-2.0761-0.25947-5.3584-2.9402-6.4392-3.5679z"/>
 <path d="m628.07 403.55c-1.0053 0.67562 0.11088 3.324 3.0151 4.7065-1.2148-1.02-2.517-3.9005-3.0151-4.7065z"/>
 <path d="m606.68 377.87c-3.7282 0.93055-3.2099 7.2361 4.0082 11.748-2.5485-2.841-3.3763-9.7453-4.0082-11.748z" fill-opacity=".37247"/>
 <path d="m611.55 372.38c-3.7282 0.93055-3.2099 7.2361 4.0082 11.748-2.5485-2.841-3.3763-9.7453-4.0082-11.748z" fill-opacity=".37247"/>
 <path d="m616.88 367.64c-3.7282 0.93055-3.2099 7.2361 4.0082 11.748-2.5485-2.841-3.3763-9.7453-4.0082-11.748z" fill-opacity=".37247"/>
 <path d="m621.98 362.41c-3.7282 0.93056-3.2099 7.2361 4.0082 11.748-2.5485-2.841-3.3763-9.7453-4.0082-11.748z" fill-opacity=".37247"/>
 <path d="m339.09 697.76c0.21184-4.9505-9.2106 0.48066-17.653 10.693 4.5686-3.7297 14.869-9.6389 17.653-10.693z" fill-opacity=".26721"/>
 <path d="m87.88 441.26c-25.823 23.679-37.661 58.234-28.943 91.585 5.3109 20.314 19.577 41.533 33.538 56.787 14.763 16.13 6.7177 35.11 5.7495 54.752-0.90799 18.421 15.294 29.635 28.566 38.838 10.245 7.1036 41.197 14.721 4.2896 43.75-25.942 20.404 8.2623 13.962 15.585 0.00923 8.5489-16.289 25.924 0.27135 36.982-11.196 31.663-44.699 29.712-28.653 44.691-25.537 3.7373-2.0697 8.334-18.421 4.5303-44.444-2.5779-17.637-8.3852-26.479-20.174-35.85-14.419-11.463-27.825-24.949-37.82-40.608-8.3855-13.137 10.413-29.533-2.4496-39.663-5.4022-4.2545-7.2113-13.25 1.3543-5.0859 14.765 14.074-6.0173 30.117 4.1721 43.871 23.368 42.393 77.651 36.351 53.646 127.68-15.882-9.9221-23.237-14.795-45.738 23.94-6.6226 11.761-28.18-6.3471-37.64 10.667-9.8817 17.773-51.268 22.111-23.269-0.63358 32.456-26.365 12.804-33.817 5.9218-38.854-11.697-8.561-25.701-16.658-31.655-30.431-9.1594-21.186 6.4924-46.551-8.1294-66.215-17.213-23.148-35.821-49.185-37.539-79.211-1.6524-28.885 9.7124-54.88 32.063-74.698 2.8276-2.5073 5.7685-2.5733 2.2678 0.55369z"/>
 <g transform="matrix(1.0668 -1.276 1.2948 1.0513 -673.06 577.5)">
  <path d="m372.8 411.87s4.6774 1.143 7.5276-2.1144c0.8144-1.2215-8.9134-23.375-8.9134-23.375s15.294 7.887 19.283 6.9332c6.9055-1.6513 8.8139-11.901 10.709-24.045-0.67055-10.634-1.6057-16.713-1.9299-33.143-4.199-6.8639-5.5792-13.32-5.5792-13.32 0.12153-22.217-10.812-28.678-10.812-28.678l-36.488 53.663-2.4979 9.2347s-0.68492 6.4376 4.35 7.7055c4.4145 1.1116 7.0861-2.1157 7.0861-2.1157s11.345 36.521 17.265 49.256z" fill="#fff5d0"/>
  <path d="m391.35 306.69s1.6448-16.14-9.756-15.733c0 0.81434-12.215-0.40717-35.424 19.544-0.8143 1.2215-6.41 25.313-5.7004 27.28l4.9285 15.074 3.59-0.02858c-1.1644-7.6095 11.694-22.589 11.694-22.589s23.654-29.686 22.026-34.98 4.7724 9.5456 8.6421 11.432z" fill="#bd7a13"/>
  <path d="m345.53 362.19s-13.477 7.7746-7.9408 12.492c5.6318 2.1394-3.3932 20.736 9.9838 6.4474 0 3.6646-2.3398 23.105 9.709 10.88 0.85058-4.0643 8.115 3.0994 8.115 3.0994-0.62122-10.484-12.439-35.154-12.439-35.154l-7.428 2.2358z" fill="#bd7a13"/>
  <path transform="matrix(1.1819 -.37234 .27655 .80215 84.256 112.91)" d="m171.23 356.91a10.572 8.7814 0 1 1 -21.145 0 10.572 8.7814 0 1 1 21.145 0z" fill="url(#b)"/>
  <path d="m382.07342,323.72549c1.3127-.27248 2.83097.39029 3.61137.16974 .9162.22054 4.0972-.47504 4.3771-2.82476-.5344,1.28938-2.2903,1.84076-2.952,1.78139 .6787-.44959 1.9171-.46657 1.3997-2.64663-.5005,1.1282-2.8332,2.91806-3.461,3.05378 .3054-.27144 2.214-1.84075 1.6033-2.82475-.2376.50897-2.66132,2.46366-3.45872,2.89628-1.1027.25061-1.03246.17603-1.11975.39495z"/>
  <path d="m384.73 322.15c-1.2956-3.8868-5.3264-3.455-3.095 1.7995 0 0-0.2481-5.8576 3.095-1.7995z"/>
  <path d="m386.52339,323.18704c1.3126-.27248 2.3509.01261 3.1314-.20794 .9161.22054 4.0971-.47504 4.377-2.82476-.5344,1.28938-2.2903,1.84076-2.9519,1.78139 .6786-.44959 1.9171-.46657 1.3996-2.64663-.5005,1.1282-2.8332,2.91806-3.461,3.05378 .3054-.27144 2.214-1.84075 1.6033-2.82475-.2375.50897-2.3837,2.59573-3.181,3.02835-1.1028.25061-1.0231.52902-.9174.64056z"/>
  <path d="m388.55609,321.86687c-.7798.31976-.93,1.72655-.3438,3.15625s1.689,2.351 2.4688,2.03125 .9612-1.75781.375-3.1875-1.7202-2.31976-2.5-2zm.1192,1.51703c.6181,1e-005 .9759.33933.9759.87313s.0741.81245-.472.99239c-.5871.19344-1.0171-.39896-1.0171-.93276s-.1049-.93276.5132-.93276z"/>
  <path d="m383.46 313.95c-1.7028-2.8689-6.1407-1.4191-7.2685 3.9371 0 0 5.2487-6.0612 7.2685-3.9371z"/>
  <path d="m391.97 314.44c-0.187-3.3309-2.2485-4.0923-6.3311-0.87851 0 0 5.5191-1.9379 6.3311 0.87851z"/>
 </g>
 <path d="m214.06 462.94c-1.6989-1.2185-21.834 8.846-0.84649 23.412 18.626 12.927 27.351-4.3589 27.351-4.3589s13.743-9.4419-4.435-15.723c-2.5968-0.69792-10.137-15.998-19.58-15.067-5.4296 1.1632-1.0529 9.8828-2.4894 11.737z" fill="#ff1313"/>
 <path d="m336.24 542.84c-1.1574 2.9132-1.5845 1.3963-1.9955-2.1559-17.297-110.6-88.519-55.341-64.85 5.6294-1.5215-3.712-8.5984-12.92-8.296-21.821 0.09996-2.9434-35.709-11.862-42.391-15.621 4.0881-0.12466 23.272-6.8202 32.84-17.742 0.0622-11.665 1.3872-24.133-37.395-50.232-27.206-22.121-34.502-22.039-45.454-23.44 6.6649-0.07703 7.3305-2.2624 16.732 1.3082 6.8032 3.3472 18.124 9.2552 31.444 22.117 35.863 24.278 39.54 41.79 37.178 51.329-9.1554 10.859-23.42 15.804-25.64 16.443 5.8155 2.7236 34.057 13.022 33.732 9.6846-4.8769-50.064 67.671-76.87 74.097 24.501zm-97.489-13.978c0.034-0.28637 14.007 4.005 16.469 5.0424s4.4209-2.2768 4.4177-1.8091l-0.03278 4.8124s-20.94-7.3158-20.854-8.0458zm2.6577 0.87266c-0.78787 1.2738-10.531-3.0919-12.72-1.4824-2.6679 1.9612-4.2572 2.6993-8.4944 3.9446-1.7102 0.50266-3.2143 1.0443-3.3424 1.2037s0.19642 1.517 0.72087 3.0172c1.5295 4.3744 1.3926 6.2033-0.65519 8.7512-3.2378 4.0284-7.0236 5.084-12.632 3.5223-1.9786-0.55115-4.1734-1.4514-4.8772-2.0007-1.7903-1.3974-3.0476-1.1268-4.7804 1.0292-1.3598 1.6918-0.70112 4.2534-4.1495 4.6616l-4.5966-2.0049-2.2925-2.1194c-1.2608-1.1658-2.8893-3.1339-3.6187-4.3737-1.9254-3.2725-2.3515-3.4693-4.9229-2.2749-2.5825 1.1995-4.324 0.97279-7.2559-0.94474-3.8416-2.5124-6.6788-7.9509-6.6786-12.802 3e-5 -1.2844 0.49733-3.8446 1.1052-5.6894l1.105-3.3541-1.6981-1.1273-1.6981-1.1273 1.2902-0.36433c3.418-0.96516 4.0873-1.4314 4.9428-3.443 0.44783-1.0529 1.042-3.4947 1.3202-5.4262 0.63884-4.4336 1.0724-5.394 2.5094-5.5584 0.80739-0.09227 4.2444 3.1569 7.419 3.5411 3.119 0.37749 61.593 23.121 64.001 24.422zm-27.322 10.752c0.16885-3.253-2.1485-6.6321-5.8864-8.5831-2.7591-1.44-3.6916-3.1442-2.519-4.6031 0.86801-1.0799 1.8062-1.0904 4.4682-0.05016 1.1761 0.45961 3.4512 0.99824 5.056 1.197 4.5695 0.566-0.64676-5.5701-2.0063-6.2579s-19.529-6.5796-22.473-7.5655c-3.7672-1.2616-6.9861-3.4933-8.9679-3.4402-1.5485 0.04152-4.1697-0.22679-5.8247-0.59628l-3.0093-0.67161-2.7115 3.3685c-1.5724 1.9534-2.5922 3.5334-2.4277 3.7612 0.15602 0.21601 0.66359 0.85105 1.1278 1.4113 1.0782 1.3015 0.62038 2.6663-1.4639 4.3642-1.9324 1.5742-2.941 3.7338-2.8957 6.2007 0.03112 1.6972 3.5426 8.4809 4.9645 9.5909 0.71278 0.55629 3.3214 0.66427 3.7311 0.15443 0.61948-0.77076 0.71131-5.1114 0.16591-7.848-0.71947-3.6106-0.43164-4.7722 1.3094-5.284 0.99587-0.29285 1.4229-0.12153 2.6194 1.0499 1.1063 1.0829 1.585 2.182 2.1162 4.8571 1.5481 7.7977 3.557 11.973 7.4756 15.537 2.4177 2.199 2.7173 2.3632 3.4386 1.8835 1.0802-0.71828 1.9104-4.6786 1.3832-6.5985-0.23504-0.8558-1.0187-2.5746-1.7416-3.8196-2.2548-3.8835-0.71776-7.7163 2.5173-6.2774 0.93705 0.41682 1.5986 1.3562 2.8643 4.0668 1.549 3.3181 1.8412 3.6774 4.9765 6.1248 3.0703 2.3965 3.5399 2.6239 6.0026 2.907 5.0115 0.57627 7.5088-1.004 7.71-4.8788zm-57.224-24.737c-2.379-0.57944-5.806-3.5892-6.9011-6.0606-0.96851-2.1855-1.0018-2.2158-4.4227-4.0263-1.8958-1.0033-4.657-2.1516-6.1361-2.5519-4.6171-1.2495-8.8154-2.6289-10.36-3.4039-0.81661-0.40972-2.1092-0.86802-2.8723-1.0186-1.8178-0.35857-8.1399-8.2178-9.005-11.26-0.6545-2.3008 6.3335 5.9785 10.063 7.8704 0.81389 0.41309 3.9168 1.6306 6.8952 2.7057s5.8743 2.3048 6.4351 2.7328 2.7392 1.1386 4.8409 1.5788c4.7774 1.0008 7.8163 4.6472 6.7754 1.1709-0.40605-1.3563-3.2434-6.756-3.489-6.9477-0.83617-0.65331-7.7731-25.747-20.915-51.036-0.52909-1.0181 11.517 16.93 12.438 19.566 0.53694 1.5357 9.5804 29.857 9.6275 30.564 0.12472 1.8683 2.8576 3.889 5.8684 4.3392 2.8089 0.41981 5.6714 2.1211 4.1188 2.92-11.218 5.7718-3.2773 9.621-2.1 11.18 1.0781 1.4283 0.74923 2.0689-0.86074 1.6767zm37.152-72.981c2.9214-4.4256 3.7372-13.309-3.5351-9.4834-6.0646-0.04213-6.1692-0.85464-13.507-3.9858 16.096 4.8088 13.327-0.14101 16.692 0.31607 3.5003 0.4755 4.9865 3.0669 5.5203 5.2696 0.68346 2.8212-5.6987 8.6836-5.1705 7.8835zm-26.593-27.004c-1.1133 0.06793-21.906-13.335-23.082-13.654-2.1089-0.57132-2.1271-0.5652-1.3395 0.44534 0.92785 1.1903-25.568-3.5987-25.093-3.0057 18.294 22.814 22.418 66.362 21.707 67.246-0.95225 1.1847-8.4649-49.833-21.826-62.031-6.8299-12.934-9.0118-2.8327-12.396 7.4547-2.9228 8.8844-6.6194 42.988-5.031 48.697 0.97038 3.4884 24.686 35.125 23.611 35.508-1.617 0.5768-26.925-32.671-27.038-36.76-0.04615-1.6742 0.27155-32.039 0.49029-33.643s1.1279-4.7218 2.0204-6.929 1.9934-5.7676 2.4463-7.9119c1.6828-7.9668 7.0094-16.306 12.577-19.69 3.2809-1.9944 4.8987-2.3132 8.7918-1.7325 6.8265 1.018 20.924 8.8898 25.183 12.214 1.277 0.99661 21.864 13.614 18.978 13.79zm-29.727-16.926c-3.9943-2.3043-13.861-4.939-17.444-4.6584-1.8212 0.14275-3.2882 1.3366-2.448 1.9923 0.64873 0.50636 10.822 2.9535 11.9 3.4182 3.6734 1.5827 10.756 2.364 10.569 1.166-0.0405-0.26051-1.2004-1.1237-2.5777-1.9181zm16.513 29.591c0.75461-1.4654 0.7924-2.766 3.5886-1.4112s4.4258 3.6278 3.6711 5.0934-3.6223 1.5754-6.4185 0.22035c-2.7962-1.3549-1.596-2.4369-0.84125-3.9025zm-0.32229 1.0089c-0.47306 0.58859-0.13562 1.5892 0.73319 2.2673s1.9344 0.77276 2.4076 0.18406 0.15948-1.6189-0.70931-2.297-1.9583-0.74303-2.4315-0.15434zm60.665 31.254c-15.335-2.6653-14.97 16.544-7.333 24.68 2.5605 2.7277 4.7077 5.5735-10.554 4.8863 3.874 0.35269 5.9043 2.7876 16.083-0.08758 3.6089 1.0744 16.972 10.097 29.79-8.6025 11.596-15.837-10.15-13.931-9.2273-25.393-0.79708 7.5521-6.8238-5.9239-13.899-7.0958-3.9039-0.98082-9.035 4.8609-4.8589 11.613zm15.057-0.37027c1.7707 1.0786-1.8741 1.0154-7.0215 7.8376-3.7664 6.6881-5.9934 18.218-10.567 17.189-2.1954-2.9217-10.525-12.739-5.9751-17.877 4.7729-4.6642 6.9242-5.1811 14.473-2.7646-11.016-17.273 2.06-13.364 9.0906-4.3848zm6.8615 7.2692c14.315 2.269 1.4931 28.787-20.112 20.552 24.607-10.644 20.279-17.262 20.112-20.552z"/>
 <path d="m215.97 485.82c5.1191-7.6767 8.0522-16.723 15.074-22.922 0.61207 0.21933 3.6608 4.8148 3.7721 5.8567-0.724 7.1675-1.4297 7.1405-18.846 17.065z" fill="#fff"/>
 <path d="m157.86 509.54c0.43384-4.9951 8.9595-7.9611 7.2532 0.54202 0.12015-0.33161-0.54665-2.5592-0.74833-3.2262-0.38132 1.3633-3.2055 1.0937-2.8602-0.79442 0.29383-0.32715-1.1808-0.84364-3.6447 3.4786z" fill-rule="evenodd"/>
 <path d="m109.96 405.36c-5.8926 11.078-7.1889 33.116-8.1317 51.265 4.5962 12.257 12.728 21.685 17.678 30.052-19.917-42.426-9.0745-57.276-9.546-81.317z" display="block" fill="#fff" fill-opacity=".40081"/>
</svg>
