<?xml version="1.0" encoding="UTF-8"?>
<svg viewBox="0 0 562.5 687.5" xmlns="http://www.w3.org/2000/svg" xmlns:xlink="http://www.w3.org/1999/xlink">
 <defs>
  <linearGradient id="a">
   <stop stop-color="#7d92b9" stop-opacity=".92941" offset="0"/>
   <stop stop-color="#9fdeff" offset=".5"/>
   <stop stop-color="#fff" offset=".78261"/>
   <stop stop-color="#fff" offset="1"/>
  </linearGradient>
  <linearGradient id="j" x1="153.65" x2="176.79" gradientUnits="userSpaceOnUse" xlink:href="#a"/>
  <linearGradient id="i" x1="206" x2="229.14" gradientUnits="userSpaceOnUse" xlink:href="#a"/>
  <linearGradient id="h" x1="262.23" x2="285.37" gradientUnits="userSpaceOnUse" xlink:href="#a"/>
  <linearGradient id="g" x1="322.34" x2="345.48" gradientUnits="userSpaceOnUse" xlink:href="#a"/>
  <linearGradient id="f" x1="378.57" x2="401.71" gradientUnits="userSpaceOnUse" xlink:href="#a"/>
  <linearGradient id="e" x1="188.55" x2="211.69" gradientUnits="userSpaceOnUse" xlink:href="#a"/>
  <linearGradient id="d" x1="266.11" x2="289.25" gradientUnits="userSpaceOnUse" xlink:href="#a"/>
  <linearGradient id="c" x1="343.67" x2="366.81" gradientUnits="userSpaceOnUse" xlink:href="#a"/>
  <linearGradient id="b" x1="121.58" x2="210.13" y1="736.55" y2="559.08" gradientTransform="scale(1.996 .501)" gradientUnits="userSpaceOnUse" xlink:href="#a"/>
 </defs>
 <path transform="matrix(2.3089 0 0 -2.2386 -517.61 1317.7)" d="m451.43 323.79a105.71 25.714 0 1 1 -211.43 0 105.71 25.714 0 1 1 211.43 0z" fill="url(#b)" fill-rule="evenodd" stroke="#000" stroke-linecap="round" stroke-linejoin="round" stroke-width="2.1909"/>
 <path transform="matrix(1.6184 0 0 -1.3487 -280.84 926.83)" d="m451.43 323.79a105.71 25.714 0 1 1 -211.43 0 105.71 25.714 0 1 1 211.43 0z" fill="#fff3c3" fill-rule="evenodd" stroke="#000" stroke-linecap="round" stroke-linejoin="round" stroke-width="2.1909"/>
 <path d="m105.34 490.26v97.863s11.332 35.803 181.31 35.803 165.44-39.384 165.44-39.384l-1.1332-96.669s-10.198 36.997-175.64 36.997-169.97-34.61-169.97-34.61z" fill="#fff9e7" fill-rule="evenodd" stroke="#000" stroke-width="3.3745"/>
 <path transform="matrix(1.645 0 0 -1.3708 -291.29 934.41)" d="m451.43 323.79a105.71 25.714 0 1 1 -211.43 0 105.71 25.714 0 1 1 211.43 0z" fill="none" stroke="#000" stroke-dasharray="8.9577307 8.9577307" stroke-linecap="round" stroke-linejoin="round" stroke-width="8.9577"/>
 <path transform="matrix(1.6188 0 0 -1.349 -282.23 927.34)" d="m451.43 323.79a105.71 25.714 0 1 1 -211.43 0 105.71 25.714 0 1 1 211.43 0z" fill="none" stroke="#fff9e7" stroke-dasharray="9.0207646 9.0207646" stroke-linecap="round" stroke-linejoin="round" stroke-width="9.0208"/>
 <path d="m165.22 327.33a10.055 7.8336 0 0 1 10.055 7.8336v153.26a10.055 7.8336 0 0 1 -10.055 7.8336 10.055 7.8336 0 0 1 -10.055 -7.8336v-153.26a10.055 7.8336 0 0 1 10.055 -7.8336" fill="url(#j)" fill-rule="evenodd" stroke="#000" stroke-linecap="round" stroke-linejoin="round" stroke-width="3.0297"/>
 <path d="m390.14 327.33a10.055 7.8336 0 0 1 10.055 7.8336v153.26a10.055 7.8336 0 0 1 -10.055 7.8336 10.055 7.8336 0 0 1 -10.055 -7.8336v-153.26a10.055 7.8336 0 0 1 10.055 -7.8336" fill="url(#f)" fill-rule="evenodd" stroke="#000" stroke-linecap="round" stroke-linejoin="round" stroke-width="3.0297"/>
 <path d="m273.8 337.03a10.055 7.8336 0 0 1 10.055 7.8336v153.26a10.055 7.8336 0 0 1 -10.055 7.8336 10.055 7.8336 0 0 1 -10.055 -7.8336v-153.26a10.055 7.8336 0 0 1 10.055 -7.8336" fill="url(#h)" fill-rule="evenodd" stroke="#000" stroke-linecap="round" stroke-linejoin="round" stroke-width="3.0297"/>
 <path d="m333.91 335.09a10.055 7.8336 0 0 1 10.055 7.8336v153.26a10.055 7.8336 0 0 1 -10.055 7.8336 10.055 7.8336 0 0 1 -10.055 -7.8336v-153.26a10.055 7.8336 0 0 1 10.055 -7.8336" fill="url(#g)" fill-rule="evenodd" stroke="#000" stroke-linecap="round" stroke-linejoin="round" stroke-width="3.0297"/>
 <path d="m217.57 335.09a10.055 7.8336 0 0 1 10.055 7.8336v153.26a10.055 7.8336 0 0 1 -10.055 7.8336 10.055 7.8336 0 0 1 -10.055 -7.8336v-153.26a10.055 7.8336 0 0 1 10.055 -7.8336" fill="url(#i)" fill-rule="evenodd" stroke="#000" stroke-linecap="round" stroke-linejoin="round" stroke-width="3.0297"/>
 <path d="m135.91 310.58v66.922s9.3332 24.484 149.33 24.484 136.26-26.932 136.26-26.932l-0.93333-66.106s-8.3999 25.3-144.66 25.3-140-23.668-140-23.668z" fill="#fff9e7" fill-rule="evenodd" stroke="#000" stroke-width="2.5325"/>
 <path transform="matrix(1.3459 0 0 -1.1216 -186.61 669.89)" d="m451.43 323.79a105.71 25.714 0 1 1 -211.43 0 105.71 25.714 0 1 1 211.43 0z" fill="#fff3c3" fill-rule="evenodd" stroke="#000" stroke-linecap="round" stroke-linejoin="round" stroke-width="2.1909"/>
 <path transform="matrix(1.3677 0 0 -1.1397 -194.14 675.78)" d="m451.43 323.79a105.71 25.714 0 1 1 -211.43 0 105.71 25.714 0 1 1 211.43 0z" fill="none" stroke="#000" stroke-dasharray="9.8637607 9.8637607" stroke-linecap="round" stroke-linejoin="round" stroke-width="9.8638"/>
 <path transform="matrix(1.3459 0 0 -1.1216 -186.61 669.9)" d="m451.43 323.79a105.71 25.714 0 1 1 -211.43 0 105.71 25.714 0 1 1 211.43 0z" fill="none" stroke="#fff9e7" stroke-dasharray="9.8637607 9.8637607" stroke-linecap="round" stroke-linejoin="round" stroke-width="9.8638"/>
 <path d="m277.68 150.88a10.055 7.8336 0 0 1 10.055 7.8336v153.26a10.055 7.8336 0 0 1 -10.055 7.8336 10.055 7.8336 0 0 1 -10.055 -7.8336v-153.26a10.055 7.8336 0 0 1 10.055 -7.8336" fill="url(#d)" fill-rule="evenodd" stroke="#000" stroke-linecap="round" stroke-linejoin="round" stroke-width="3.0297"/>
 <path d="m355.24 141.19a10.055 7.8336 0 0 1 10.055 7.8336v153.26a10.055 7.8336 0 0 1 -10.055 7.8336 10.055 7.8336 0 0 1 -10.055 -7.8336v-153.26a10.055 7.8336 0 0 1 10.055 -7.8336" fill="url(#c)" fill-rule="evenodd" stroke="#000" stroke-linecap="round" stroke-linejoin="round" stroke-width="3.0297"/>
 <path d="m200.12 143.13a10.055 7.8336 0 0 1 10.055 7.8336v153.26a10.055 7.8336 0 0 1 -10.055 7.8336 10.055 7.8336 0 0 1 -10.055 -7.8336v-153.26a10.055 7.8336 0 0 1 10.055 -7.8336" fill="url(#e)" fill-rule="evenodd" stroke="#000" stroke-linecap="round" stroke-linejoin="round" stroke-width="3.0297"/>
 <path d="m175.94 141.86v54.969s6.7035 20.111 107.26 20.111 97.871-22.122 97.871-22.122l-0.67035-54.298s-6.0332 20.781-103.9 20.781-100.55-19.44-100.55-19.44z" fill="#fff9e7" fill-rule="evenodd" stroke="#000" stroke-width="2.5449"/>
 <path transform="matrix(.9695 0 0 -.80792 -56.491 402.01)" d="m451.43 323.79a105.71 25.714 0 1 1 -211.43 0 105.71 25.714 0 1 1 211.43 0z" fill="#fff3c3" fill-rule="evenodd" stroke="#000" stroke-linecap="round" stroke-linejoin="round" stroke-width="2.1909"/>
 <path transform="matrix(.96704 0 0 -.80587 -56.383 400.55)" d="m451.43 323.79a105.71 25.714 0 1 1 -211.43 0 105.71 25.714 0 1 1 211.43 0z" fill="none" stroke="#000" stroke-dasharray="9.8637607 9.8637607" stroke-linecap="round" stroke-linejoin="round" stroke-width="9.8638"/>
 <path transform="matrix(.95163 0 0 -.79303 -51.056 396.39)" d="m451.43 323.79a105.71 25.714 0 1 1 -211.43 0 105.71 25.714 0 1 1 211.43 0z" fill="none" stroke="#fff9e7" stroke-dasharray="9.8637607 9.8637607" stroke-linecap="round" stroke-linejoin="round" stroke-width="9.8638"/>
 <path d="m253.26 129.44s-1.6798 1.6798-0.8399 4.6194 0.8399 3.3596 2.9396 4.1994 3.7795-2.5197 3.7795-2.5197 1.2598 1.6798 3.3596 1.6798 5.0394-0.41995 5.0394-0.41995l-5.4593-10.919-8.8189 3.3596z" fill="#370000" fill-rule="evenodd" stroke="#000" stroke-width=".20997"/>
 <path d="m267.41 31.237c0 3.9285-3.0726 7.1131-6.8629 7.1131s-6.8629-3.1846-6.8629-7.1131 3.0726-7.1131 6.8629-7.1131 6.8629 3.1846 6.8629 7.1131z" fill="#4d2f2f" stroke="#5e5f60" stroke-linecap="round" stroke-linejoin="round" stroke-width=".9695"/>
 <path d="m254.1 43.772 2.9396-3.3596 5.0394 0.41994 3.3596 2.0997-3.7795 31.076-5.8792-6.7191-1.6798-23.517z" fill="#fff" fill-rule="evenodd" stroke="#000" stroke-width=".20997"/>
 <path d="m255.93 44.956 2.2334 2.3479 2.0616-3.2069 1.6607 2.9205 2.7487-2.3479" fill="none" stroke="#000" stroke-opacity=".35676" stroke-width=".20997"/>
 <path d="m281.05 54.683-3.7472 2.4981s1.0409 7.4943 2.0818 9.7842 1.4572 2.9144 1.249 3.9553 0 3.9553-1.8736 4.788-1.8736 1.0409-2.9144 2.7063-11.241 25.397-11.241 25.397l-2.0818 27.063s-1.4572-1.249-0.20818 0.8327-0.20817 3.1226 3.1226 4.788 1.8736 2.7063 9.7842 3.1226 11.45-0.8327 15.613 0.20818 4.5798-0.83271 6.4534-0.62453 4.5798 0.41635 9.3679-2.4981 5.6207-1.0409 6.2452-2.9144 2.7063 0.20817 1.4572-2.4981-6.2452-13.531-7.7024-26.646c-2.2899-13.74-6.4534-25.605-9.7842-27.271-3.539-1.8736-1.4572-7.2861-1.4572-7.2861l1.4572-5.6207v-6.2452l-4.5798-3.3308-11.241-0.20817z" fill="#fff" fill-rule="evenodd" stroke="#000" stroke-width=".9695"/>
 <path d="m252.12 129.42s-0.20818-3.1226-0.20818-9.7842 0-14.572-0.62452-18.944-3.3308-18.528-3.3308-18.528l24.981 1.6654s-1.8736 11.033-3.7471 18.111-2.4981 12.699-3.3308 17.278-1.4572 10.201-2.7063 10.617-3.9553 0.8327-4.5798-0.20817-0.20817 0.8327-1.6654 0.8327-3.9553 0-4.788-1.0409z" fill="#464646" fill-rule="evenodd" stroke="#000" stroke-width=".9695"/>
 <path d="m297.3 40.413c0 4.1624-4.1105 7.5367-9.181 7.5367s-9.181-3.3743-9.181-7.5367 4.1105-7.5367 9.181-7.5367 9.181 3.3743 9.181 7.5367z" fill="#4d2f2f" stroke="#5e5f60" stroke-linecap="round" stroke-linejoin="round" stroke-width=".9695"/>
 <path d="m247.74 85.284s-3.1226 0.20817-4.3717 0-1.249-0.8327-1.249-0.8327 0-13.531 0.20817-16.654 1.249-17.487 2.7063-18.736 7.9106-4.3717 7.9106-4.3717 0.83271-1.4572 1.6654-2.0818 1.6654-0.8327 1.6654-0.8327-0.62453 1.0409-0.20818 4.788 3.3308 23.316 3.3308 23.316 5.4125-24.565 5.4125-26.022 0.20818-1.249 0.20818-1.249 2.4981 1.0409 2.7063 2.0818 5.6207 1.8736 6.6616 2.7063 2.0817 0.41635 2.7063 4.5798 3.539 13.115 2.4981 14.364-2.0817 4.3717-3.9553 5.8289-3.539 2.2899-3.539 2.2899 3.1226 15.613 1.6654 16.654-9.576 2.7063-11.033 1.249-3.7471-8.327-3.7471-8.327 0.20817 3.9553 0.20817 5.2044-1.0409 4.1635-4.5798 3.7472-5.8289 0-5.8289 0l-1.0409-7.7025z" fill="#464646" fill-rule="evenodd" stroke="#000" stroke-width=".9695"/>
 <path d="m260.03 68.722s7.0779-1.0409 9.9924-2.9144 3.539-1.4572 3.1226-5.2044-0.20817-3.539-0.20817-3.539" fill="none" stroke="#000" stroke-width=".54593"/>
 <path d="m272.41 63.217c-0.97512-0.08126-2.0315-0.40631-3.1692 0.40631s-1.9502 1.6252-1.7877 2.7629 0.16252 2.194 1.6252 2.8441 2.0315 1.3002 2.9254 0.89386 0.81261-0.32503 1.3814-1.7877 1.0564-0.56882 0.89387-1.9503-0.56883-2.4378-1.869-3.1692z" fill="#fff" fill-rule="evenodd" stroke="#000" stroke-width=".9695"/>
 <path d="m258.57 129.21s1.4572-8.5352 1.6654-14.78 0.41635-8.327 0.8327-12.699c-0.41635-3.9553-0.20817-7.0779-0.20817-7.0779" fill="none" stroke="#000" stroke-width=".60892"/>
 <path d="m243.58 85.076s0.20818 2.0818 1.8736 5.6207 4.5798 4.5798 4.5798 4.5798 0.62452-3.9553-1.0409-6.0371-1.8736-3.9553-1.8736-3.9553-0.41634-0.62453-1.8736 0.20817-1.6654-0.41635-1.6654-0.41635z" fill="#f4b153" fill-rule="evenodd" stroke="#000" stroke-width=".9695"/>
 <path d="m258.57 75.292v-6.4534s-2.0818-1.8736-4.5798-1.249-4.1635 1.0409-3.7471 2.9144 1.8736 3.9553 3.539 4.5798 4.788 0.20818 4.788 0.20818z" fill="#f4b153" fill-rule="evenodd" stroke="#000" stroke-width=".41995"/>
 <path d="m258.57 68.839h1.4572v6.4534h-1.6654l0.20817-6.4534z" fill="#fff" fill-rule="evenodd" stroke="#000" stroke-width=".41995"/>
 <path d="m259.82 75.084 0.20818 1.6654s3.539-0.62452 6.2452-1.0409 6.0371-1.4572 6.0371-1.4572" fill="none" stroke="#000" stroke-width=".50393"/>
 <path d="m281.88 54.266c1.6654-0.41635 1.8736-1.0409 1.8736-1.0409 1.2491-0.41635-0.20817-1.4572-1.0409-3.7471s-3.3308-9.576 1.4572-8.5352 8.7433-4.5798 9.7842-0.62452 0.59589 7.0206-1.0695 9.3106-2.2613 2.139-1.4286 3.3881 2.2899 2.9144 2.2899 2.9144-1.249 3.1226-2.9144 4.1635c0 1.249-1.4572 1.0409-4.1635 0.62452-3.274 0.48259-2.9523-1.1734-4.173-3.274-0.80431-0.77592-2.2805-2.763-0.61506-3.1794z" fill="#f4b153" fill-rule="evenodd" stroke="#000" stroke-width=".9695"/>
 <path d="m296.46 65.712s-0.20817 2.9144-0.8327 3.7471-5.6207 3.7472-5.6207 3.7472-1.4572 3.7471 2.4981 3.539 7.0779-1.8736 7.7025-3.3308 0.62452-6.6616 0.62452-6.6616-1.6654-1.6654-2.7063-1.6654-1.6654 0.62452-1.6654 0.62452z" fill="#fff" fill-rule="evenodd" stroke="#000" stroke-width=".9695"/>
 <path d="m296.66 58.013-1.4572 3.1226s1.249 2.2899 1.249 3.7472 0.20817 1.0409 0.20817 1.0409 0.62453-0.62452 1.8736-0.20817 2.2899 1.4572 2.2899 1.4572-0.20817-1.8736-1.0409-4.1635-2.7063-4.3717-3.1226-4.9962z" fill="#f4b153" fill-rule="evenodd" stroke="#000" stroke-width=".9695"/>
 <path d="m296.65 74.668c0.00141 2.185-3.1312 3.9568-6.9958 3.9568s-6.9972-1.7717-6.9958-3.9568 3.1312-3.9568 6.9958-3.9568 6.9972 1.7717 6.9958 3.9568z" fill="#1b9630" stroke="#5e5f60" stroke-linecap="round" stroke-linejoin="round" stroke-width=".35265"/>
 <path d="m259.98 43.772c-2.0997-0.8399-3.7795 0-4.1994-4.1995s-1.6798-3.7795-0.8399-7.559 0.8399-2.0997 0.8399-2.0997 2.9396 0.41995 5.8792 0.41995 3.7795-1.2598 3.7795-1.2598l0.8399 6.7191c-0.29421 1.471-1.6798 3.7795-2.5197 5.8792s-3.7795 2.0997-3.7795 2.0997z" fill="#f4b153" fill-rule="evenodd" stroke="#000" stroke-width=".9695"/>
 <path d="m252.42 44.994 4.6194 23.135" fill="none" stroke="#000" stroke-width=".41995"/>
 <path d="m268.3 45.338-5.8029 22.792" fill="none" stroke="#000" stroke-width=".41995"/>
 <path d="m258.72 84.927 0.41995-9.2388" fill="none" stroke="#000" stroke-width=".52493"/>
 <path d="m256.88998,44.14422c-.23485.0338-.38416.16523-.36745.44738 .06681,1.12858.67047,1.41333.60367,1.78954s-.86963,1.40824.06561,1.31418c.56369-.05668 1.47823-.75799 2.14567-1.454 .19228.17924.44423.29826.72178.29826 .31861,0 .59491-.15347.79396-.38214 .99986.9553 2.16823,2.04178 2.48686,1.81749 .53443-.37619.13424-1.50231.33465-2.34877s.66377-1.12862-.8727-1.03457c-.72877.04461-1.341.15967-1.81102.26097-.18627-.34786-.5239-.58719-.93175-.58719-.38144,0-.70467.21073-.89895.52195-.46552-.17128-1.63433-.73465-2.27033-.64312z" fill-rule="evenodd" stroke="#000" stroke-width=".29064"/>
 <path d="m294.16 74.463c0 1.5837-2.3695 2.8675-5.2925 2.8675s-5.2925-1.2838-5.2925-2.8675 2.3695-2.8675 5.2925-2.8675 5.2925 1.2838 5.2925 2.8675z" fill="#e20000"/>
 <path d="m242.68 84.834 0.5884 1.7652 4.413-0.29419-0.58839-1.1768-4.413-0.2942z" fill="#fff" fill-rule="evenodd" stroke="#000" stroke-width=".41995"/>
 <path d="m284.27 52.808-1.0433 1.0061s-0.52168 0.14905 0.37261 0.55893 2.124 1.0061 3.8008 1.1551 4.3224-0.44715 4.6951-0.70799 0.37261-0.2981 0.37261-0.2981l-1.1924-1.7513s-0.4099 0.4844-2.0494 0.59619-3.3909 0.26083-4.0616-0.03727-0.8943-0.52167-0.8943-0.52167z" fill="#fff" fill-rule="evenodd" stroke="#000" stroke-width=".44403"/>
 <path d="m247.54 84.66s0.20817-20.817-0.41635-26.23" fill="none" stroke="#000" stroke-width=".56693"/>
 <path transform="matrix(.15016 0 0 .42943 132.71 385.81)" d="m-80 454.36c-5.8292 1.6655-7.3107-7.4753-13.364-7.1487s-6.5431 9.5738-12.518 8.5451-3.3433-9.907-8.9392-12.239-10.049 5.7867-14.986 2.2677 1.2863-10.376-2.7434-14.906-11.565 0.85356-14.485-4.4589 5.6611-8.7908 3.9956-14.62-10.79-4.2486-11.116-10.302 8.9147-5.464 9.9433-11.439-7.8778-8.5094-5.5454-14.105 10.403-1.0549 13.922-5.9915-3.4055-11.085 1.1238-15.114 9.8301 3.563 15.143 0.6422 1.7412-11.465 7.5704-13.13 7.3107 7.4753 13.364 7.1487 6.5431-9.5738 12.518-8.5451 3.3433 9.907 8.9392 12.239 10.049-5.7867 14.986-2.2677-1.2863 10.377 2.7434 14.906 11.565-0.85356 14.485 4.4589-5.6611 8.7908-3.9956 14.62 10.79 4.2487 11.116 10.302-8.9147 5.464-9.9433 11.439 7.8778 8.5094 5.5454 14.105-10.403 1.0549-13.922 5.9915 3.4055 11.085-1.1238 15.114-9.8301-3.563-15.143-0.64219-1.7412 11.465-7.5704 13.13z" fill="#fff3c3" fill-rule="evenodd" stroke="#ffa0a3" stroke-dasharray="25.000000 50.000000" stroke-linecap="round" stroke-linejoin="round" stroke-width="25"/>
 <path transform="matrix(.43414 0 0 .42943 292.79 409.08)" d="m-80 454.36c-5.8292 1.6655-7.3107-7.4753-13.364-7.1487s-6.5431 9.5738-12.518 8.5451-3.3433-9.907-8.9392-12.239-10.049 5.7867-14.986 2.2677 1.2863-10.376-2.7434-14.906-11.565 0.85356-14.485-4.4589 5.6611-8.7908 3.9956-14.62-10.79-4.2486-11.116-10.302 8.9147-5.464 9.9433-11.439-7.8778-8.5094-5.5454-14.105 10.403-1.0549 13.922-5.9915-3.4055-11.085 1.1238-15.114 9.8301 3.563 15.143 0.6422 1.7412-11.465 7.5704-13.13 7.3107 7.4753 13.364 7.1487 6.5431-9.5738 12.518-8.5451 3.3433 9.907 8.9392 12.239 10.049-5.7867 14.986-2.2677-1.2863 10.377 2.7434 14.906 11.565-0.85356 14.485 4.4589-5.6611 8.7908-3.9956 14.62 10.79 4.2487 11.116 10.302-8.9147 5.464-9.9433 11.439 7.8778 8.5094 5.5454 14.105-10.403 1.0549-13.922 5.9915 3.4055 11.085-1.1238 15.114-9.8301-3.563-15.143-0.64219-1.7412 11.465-7.5704 13.13z" fill="#fff3c3" fill-rule="evenodd" stroke="#ffa0a3" stroke-dasharray="25.000000 50.000000" stroke-linecap="round" stroke-linejoin="round" stroke-width="25"/>
 <path transform="matrix(.31054 0 0 .42943 448.65 389.69)" d="m-80 454.36c-5.8292 1.6655-7.3107-7.4753-13.364-7.1487s-6.5431 9.5738-12.518 8.5451-3.3433-9.907-8.9392-12.239-10.049 5.7867-14.986 2.2677 1.2863-10.376-2.7434-14.906-11.565 0.85356-14.485-4.4589 5.6611-8.7908 3.9956-14.62-10.79-4.2486-11.116-10.302 8.9147-5.464 9.9433-11.439-7.8778-8.5094-5.5454-14.105 10.403-1.0549 13.922-5.9915-3.4055-11.085 1.1238-15.114 9.8301 3.563 15.143 0.6422 1.7412-11.465 7.5704-13.13 7.3107 7.4753 13.364 7.1487 6.5431-9.5738 12.518-8.5451 3.3433 9.907 8.9392 12.239 10.049-5.7867 14.986-2.2677-1.2863 10.377 2.7434 14.906 11.565-0.85356 14.485 4.4589-5.6611 8.7908-3.9956 14.62 10.79 4.2487 11.116 10.302-8.9147 5.464-9.9433 11.439 7.8778 8.5094 5.5454 14.105-10.403 1.0549-13.922 5.9915 3.4055 11.085-1.1238 15.114-9.8301-3.563-15.143-0.64219-1.7412 11.465-7.5704 13.13z" fill="#fff3c3" fill-rule="evenodd" stroke="#ffa0a3" stroke-dasharray="25.000000 50.000000" stroke-linecap="round" stroke-linejoin="round" stroke-width="25"/>
 <path transform="matrix(.16339 0 0 .2586 421.92 252.21)" d="m-80 454.36c-5.8292 1.6655-7.3107-7.4753-13.364-7.1487s-6.5431 9.5738-12.518 8.5451-3.3433-9.907-8.9392-12.239-10.049 5.7867-14.986 2.2677 1.2863-10.376-2.7434-14.906-11.565 0.85356-14.485-4.4589 5.6611-8.7908 3.9956-14.62-10.79-4.2486-11.116-10.302 8.9147-5.464 9.9433-11.439-7.8778-8.5094-5.5454-14.105 10.403-1.0549 13.922-5.9915-3.4055-11.085 1.1238-15.114 9.8301 3.563 15.143 0.6422 1.7412-11.465 7.5704-13.13 7.3107 7.4753 13.364 7.1487 6.5431-9.5738 12.518-8.5451 3.3433 9.907 8.9392 12.239 10.049-5.7867 14.986-2.2677-1.2863 10.377 2.7434 14.906 11.565-0.85356 14.485 4.4589-5.6611 8.7908-3.9956 14.62 10.79 4.2487 11.116 10.302-8.9147 5.464-9.9433 11.439 7.8778 8.5094 5.5454 14.105-10.403 1.0549-13.922 5.9915 3.4055 11.085-1.1238 15.114-9.8301-3.563-15.143-0.64219-1.7412 11.465-7.5704 13.13z" fill="#fff3c3" fill-rule="evenodd" stroke="#ffa0a3" stroke-dasharray="25.000000 50.000000" stroke-linecap="round" stroke-linejoin="round" stroke-width="25"/>
 <path transform="matrix(.20383 0 0 .25975 180.52 255.63)" d="m-80 454.36c-5.8292 1.6655-7.3107-7.4753-13.364-7.1487s-6.5431 9.5738-12.518 8.5451-3.3433-9.907-8.9392-12.239-10.049 5.7867-14.986 2.2677 1.2863-10.376-2.7434-14.906-11.565 0.85356-14.485-4.4589 5.6611-8.7908 3.9956-14.62-10.79-4.2486-11.116-10.302 8.9147-5.464 9.9433-11.439-7.8778-8.5094-5.5454-14.105 10.403-1.0549 13.922-5.9915-3.4055-11.085 1.1238-15.114 9.8301 3.563 15.143 0.6422 1.7412-11.465 7.5704-13.13 7.3107 7.4753 13.364 7.1487 6.5431-9.5738 12.518-8.5451 3.3433 9.907 8.9392 12.239 10.049-5.7867 14.986-2.2677-1.2863 10.377 2.7434 14.906 11.565-0.85356 14.485 4.4589-5.6611 8.7908-3.9956 14.62 10.79 4.2487 11.116 10.302-8.9147 5.464-9.9433 11.439 7.8778 8.5094 5.5454 14.105-10.403 1.0549-13.922 5.9915 3.4055 11.085-1.1238 15.114-9.8301-3.563-15.143-0.64219-1.7412 11.465-7.5704 13.13z" fill="#fff3c3" fill-rule="evenodd" stroke="#ffa0a3" stroke-dasharray="25.000000 50.000000" stroke-linecap="round" stroke-linejoin="round" stroke-width="25"/>
 <path transform="matrix(.37921 0 0 .29101 336 254.81)" d="m-80 454.36c-5.8292 1.6655-7.3107-7.4753-13.364-7.1487s-6.5431 9.5738-12.518 8.5451-3.3433-9.907-8.9392-12.239-10.049 5.7867-14.986 2.2677 1.2863-10.376-2.7434-14.906-11.565 0.85356-14.485-4.4589 5.6611-8.7908 3.9956-14.62-10.79-4.2486-11.116-10.302 8.9147-5.464 9.9433-11.439-7.8778-8.5094-5.5454-14.105 10.403-1.0549 13.922-5.9915-3.4055-11.085 1.1238-15.114 9.8301 3.563 15.143 0.6422 1.7412-11.465 7.5704-13.13 7.3107 7.4753 13.364 7.1487 6.5431-9.5738 12.518-8.5451 3.3433 9.907 8.9392 12.239 10.049-5.7867 14.986-2.2677-1.2863 10.377 2.7434 14.906 11.565-0.85356 14.485 4.4589-5.6611 8.7908-3.9956 14.62 10.79 4.2487 11.116 10.302-8.9147 5.464-9.9433 11.439 7.8778 8.5094 5.5454 14.105-10.403 1.0549-13.922 5.9915 3.4055 11.085-1.1238 15.114-9.8301-3.563-15.143-0.64219-1.7412 11.465-7.5704 13.13z" fill="#fff3c3" fill-rule="evenodd" stroke="#ffa0a3" stroke-dasharray="25.000000 50.000000" stroke-linecap="round" stroke-linejoin="round" stroke-width="25"/>
 <path transform="matrix(.2174 0 0 .23048 361.18 92.779)" d="m-80 454.36c-5.8292 1.6655-7.3107-7.4753-13.364-7.1487s-6.5431 9.5738-12.518 8.5451-3.3433-9.907-8.9392-12.239-10.049 5.7867-14.986 2.2677 1.2863-10.376-2.7434-14.906-11.565 0.85356-14.485-4.4589 5.6611-8.7908 3.9956-14.62-10.79-4.2486-11.116-10.302 8.9147-5.464 9.9433-11.439-7.8778-8.5094-5.5454-14.105 10.403-1.0549 13.922-5.9915-3.4055-11.085 1.1238-15.114 9.8301 3.563 15.143 0.6422 1.7412-11.465 7.5704-13.13 7.3107 7.4753 13.364 7.1487 6.5431-9.5738 12.518-8.5451 3.3433 9.907 8.9392 12.239 10.049-5.7867 14.986-2.2677-1.2863 10.377 2.7434 14.906 11.565-0.85356 14.485 4.4589-5.6611 8.7908-3.9956 14.62 10.79 4.2487 11.116 10.302-8.9147 5.464-9.9433 11.439 7.8778 8.5094 5.5454 14.105-10.403 1.0549-13.922 5.9915 3.4055 11.085-1.1238 15.114-9.8301-3.563-15.143-0.64219-1.7412 11.465-7.5704 13.13z" fill="#fff3c3" fill-rule="evenodd" stroke="#ffa0a3" stroke-dasharray="25.000000 50.000000" stroke-linecap="round" stroke-linejoin="round" stroke-width="25"/>
 <path transform="matrix(.2174 0 0 .23048 240.96 90.84)" d="m-80 454.36c-5.8292 1.6655-7.3107-7.4753-13.364-7.1487s-6.5431 9.5738-12.518 8.5451-3.3433-9.907-8.9392-12.239-10.049 5.7867-14.986 2.2677 1.2863-10.376-2.7434-14.906-11.565 0.85356-14.485-4.4589 5.6611-8.7908 3.9956-14.62-10.79-4.2486-11.116-10.302 8.9147-5.464 9.9433-11.439-7.8778-8.5094-5.5454-14.105 10.403-1.0549 13.922-5.9915-3.4055-11.085 1.1238-15.114 9.8301 3.563 15.143 0.6422 1.7412-11.465 7.5704-13.13 7.3107 7.4753 13.364 7.1487 6.5431-9.5738 12.518-8.5451 3.3433 9.907 8.9392 12.239 10.049-5.7867 14.986-2.2677-1.2863 10.377 2.7434 14.906 11.565-0.85356 14.485 4.4589-5.6611 8.7908-3.9956 14.62 10.79 4.2487 11.116 10.302-8.9147 5.464-9.9433 11.439 7.8778 8.5094 5.5454 14.105-10.403 1.0549-13.922 5.9915 3.4055 11.085-1.1238 15.114-9.8301-3.563-15.143-0.64219-1.7412 11.465-7.5704 13.13z" fill="#fff3c3" fill-rule="evenodd" stroke="#ffa0a3" stroke-dasharray="25.000000 50.000000" stroke-linecap="round" stroke-linejoin="round" stroke-width="25"/>
</svg>
