<?xml version='1.0' encoding='utf-8'?>
<svg xmlns="http://www.w3.org/2000/svg" version="1.1" width="600px" height="976px" viewBox="0 0 600 976"> <g id="layer1"> <g style="fill:rgb(0,0,0); fill-opacity:1.0; stroke-linejoin: miter"> </g> <g style="fill:rgb(0,0,0); fill-opacity:1.0; stroke-linejoin: miter"> <path d="M388.63214,567.7743C388.6407,567.7743,388.64975,567.78,388.6588,567.7921C388.70184,567.8351,388.71613,567.96405,388.67316,568.06433C388.65668,568.10834,388.64017,568.1291,388.62613,568.1291C388.60355,568.1291,388.58722,568.0755,388.58722,567.9784C388.5759,567.85406,388.60025,567.7743,388.63214,567.7743 Z M388.71613,569.182C388.80212,569.182,388.85944,569.21063,388.85944,569.2393C388.85944,569.2823,388.80212,569.35394,388.71613,569.3969C388.69318,569.4107,388.67023,569.4171,388.6496,569.4171C388.60596,569.4171,388.57288,569.3883,388.57288,569.3396C388.57288,569.25366,388.64453,569.182,388.71613,569.182 Z M390.63617,565.67145L390.8368,566.7461C390.93707,567.3336,391.02307,567.9784,391.02307,568.17896C391.02307,569.09515,390.98846,569.4715,390.84225,569.4715C390.7781,569.4715,390.69247,569.39905,390.57886,569.26794C390.51013,569.1763,390.3955,569.11206,390.2937,569.11206C390.26825,569.11206,390.2436,569.1161,390.22064,569.1247C390.19443,569.1359,390.16626,569.1413,390.13766,569.1413C390.05685,569.1413,389.97266,569.0985,389.91974,569.0244C389.874,568.94196,389.87503,568.9064,389.92285,568.9064C389.94986,568.9064,389.99182,568.9177,390.0487,568.9384C390.11035,568.9624,390.15973,568.97406,390.1968,568.97406C390.3149,568.97406,390.3085,568.8556,390.17767,568.6375C390.12793,568.5679,390.03674,568.5259,389.94247,568.5259C389.90097,568.5259,389.8589,568.534,389.81946,568.5515C389.77274,568.56946,389.733,568.5789,389.7004,568.5789C389.473,568.5789,389.59222,568.1211,390.10602,566.9181L390.63617,565.67145 Z M388.04272,568.05005C388.10004,568.05005,388.1717,568.1217,388.20032,568.20764C388.2433,568.3079,388.3006,568.66614,388.32928,569.01C388.38776,569.4945,388.305,569.74524,388.11227,569.74524C387.9744,569.74524,387.78024,569.6169,387.5412,569.35394C387.01105,568.7378,386.9967,568.222,387.5412,568.136C387.7561,568.1073,387.9854,568.06433,388.04272,568.05005 Z M390.9228,569.89844C391.0374,569.89844,391.18066,569.95575,391.2237,570.04175C391.26666,570.11334,391.18066,570.185,391.02307,570.185C390.85114,570.185,390.72217,570.11334,390.72217,570.04175C390.72217,569.95575,390.80817,569.89844,390.9228,569.89844 Z M389.18414,567.1828C389.22458,567.1828,389.26767,567.45435,389.36096,568.1073C389.46124,568.7378,389.64752,569.51154,389.7765,569.81244C389.9592,570.2419,390.0021,570.43243,389.88293,570.43243C389.8152,570.43243,389.6951,570.3709,389.51855,570.25665C389.21765,570.056,389.146,569.89844,389.146,569.38257C389.146,569.05304,389.08868,568.7378,389.01703,568.6948C388.94543,568.65186,388.9024,568.4942,388.9311,568.35095C388.95972,568.222,389.03137,567.8494,389.08868,567.5342C389.12964,567.31195,389.15625,567.1828,389.18414,567.1828 Z M390.77768,570.47876C390.88336,570.47876,391.0016,570.5432,391.05176,570.6722C391.09473,570.7868,391.09473,570.9014,391.05176,570.94446C391.02252,570.9769,390.98224,570.991,390.9374,570.991C390.78452,570.991,390.57886,570.82733,390.57886,570.6722C390.57886,570.5432,390.672,570.47876,390.77768,570.47876 Z M379.73975,570.2281C379.92728,570.2281,380.5872,570.6781,380.8927,571.04474C381.09326,571.3026,381.2652,571.54626,381.2652,571.61786C381.2652,571.7468,380.5058,572.3343,380.3482,572.3343C380.27655,572.3343,379.6891,570.50024,379.6891,570.271C379.6891,570.24146,379.7074,570.2281,379.73975,570.2281 Z M391.95447,572.9075C391.9831,572.9075,392.01178,572.9648,392.01178,573.0508C392.01178,573.1224,391.94012,573.19403,391.85413,573.19403C391.78247,573.19403,391.75385,573.1224,391.7968,573.0508C391.83978,572.9648,391.91144,572.9075,391.95447,572.9075 Z M390.9471,571.3826C390.99634,571.3839,391.0729,571.4328,391.18066,571.50323C391.35266,571.61786,391.56757,571.8185,391.63922,571.9618C391.75385,572.13367,391.75385,572.234,391.61053,572.30566C391.362,572.4714,391.5393,573.7152,391.7834,573.7152C391.79257,573.7152,391.80182,573.7135,391.81116,573.70984C391.84113,573.6986,391.8691,573.69324,391.89413,573.69324C391.96484,573.69324,392.01178,573.7361,392.01178,573.8102C392.01178,574.0681,391.71088,574.34033,391.45294,574.34033C391.281,574.326,391.281,574.29736,391.4959,574.1684C391.75385,574.0251,391.75385,574.01074,391.4673,573.7815C391.25232,573.6239,391.12335,573.28,391.02307,572.62085C390.872,571.6741,390.82712,571.38574,390.94318,571.3826 Z M391.5819,574.6269C391.65356,574.6269,391.6822,574.7272,391.63922,574.8418C391.5819,574.9564,391.5246,575.05676,391.4959,575.05676C391.4673,575.05676,391.4386,574.9564,391.4386,574.8418C391.4386,574.7272,391.4959,574.6269,391.5819,574.6269 Z M396.48352,578.26215C396.51657,578.26215,396.54733,578.2895,396.5683,578.35236C396.61127,578.45264,396.55396,578.59595,396.46796,578.6819C396.4182,578.7316,396.38196,578.7571,396.35684,578.7571C396.32413,578.7571,396.31036,578.7138,396.31036,578.62463C396.31036,578.4219,396.4036,578.26215,396.48352,578.26215 Z M392.30557,574.79565C392.31293,574.79565,392.32007,574.7967,392.32697,574.7988C392.4273,574.8418,392.71387,575.3433,392.9718,575.9165L393.4303,576.96246L393.07208,577.23474C392.67114,577.56055,392.62082,577.8863,392.92108,577.8863C392.9642,577.8863,393.01453,577.8796,393.07208,577.8652C393.12042,577.8535,393.16586,577.848,393.20798,577.848C393.5279,577.848,393.65656,578.1631,393.41595,578.467C393.2727,578.6389,393.2727,578.6963,393.41595,578.73926C393.50195,578.7822,393.5879,578.9398,393.5879,579.1118C393.58047,579.26807,393.5769,579.3432,393.54712,579.3432C393.51953,579.3432,393.46942,579.2788,393.373,579.1548C393.2922,579.03937,393.17422,578.9704,393.09393,578.9704C393.07452,578.9704,393.05734,578.9744,393.0434,578.9828C393.02725,578.9925,393.0075,578.9971,392.98538,578.9971C392.90942,578.9971,392.8059,578.9427,392.7282,578.8539C392.62787,578.73926,392.45593,578.6389,392.35565,578.6389C392.11206,578.6389,392.11206,578.56726,392.31268,578.2234C392.5276,577.89386,392.37,577.20605,392.08337,577.20605C391.78247,577.20605,391.53888,576.66156,391.63922,576.1887C391.77716,575.49884,392.11444,574.79565,392.30557,574.79565 Z M395.66672,578.8264C395.6779,578.8264,395.68713,578.8307,395.6942,578.83954C395.73724,578.8825,395.62256,579.05444,395.45062,579.2407C395.33325,579.3581,395.2557,579.4186,395.22873,579.4186C395.21292,579.4186,395.2145,579.39777,395.23572,579.35535C395.4116,579.0414,395.5874,578.8264,395.66672,578.8264 Z M391.4399,567.60596L391.4399,567.60596C391.48444,567.61334,391.62616,567.98285,391.75385,568.4226C392.45593,570.93005,392.6422,571.46027,393.24402,572.64954C393.60223,573.3803,394.34735,574.64124,394.89185,575.4723C395.43634,576.28906,395.8805,577.0198,395.8805,577.09143C395.8805,577.14874,395.73724,577.20605,395.5796,577.20605C395.32166,577.20605,395.30737,577.249,395.45062,577.421C395.55096,577.53564,395.59393,577.7219,395.55096,577.8222C395.50793,577.9368,395.53662,578.10876,395.59393,578.2091C395.7301,578.43195,395.3956,578.719,395.0988,578.719C395.05206,578.719,395.0063,578.71185,394.96344,578.6963C394.90036,578.67303,394.8511,578.6606,394.81537,578.6601L394.81143,578.6601C394.69757,578.66156,394.72858,578.7927,394.89185,579.0974C394.99213,579.2837,394.99213,579.44135,394.90613,579.52734C394.89374,579.53973,394.8797,579.54584,394.86414,579.54584C394.53738,579.54584,393.526,576.86584,392.5276,573.3373C392.25537,572.34863,391.8828,571.15936,391.71088,570.6865C391.4254,569.9016,391.2253,567.62445,391.436,567.60596 Z M396.05243,578.0658C396.13843,578.0658,396.16705,578.1804,396.12408,578.338C396.09546,578.4813,396.12408,578.7106,396.19574,578.83954C396.33905,579.0974,396.22437,579.64197,396.0238,579.64197C395.9665,579.64197,395.9378,579.513,395.98077,579.3697C396.0238,579.2121,395.99512,578.9828,395.90918,578.83954C395.75153,578.56726,395.85187,578.0658,396.05243,578.0658 Z M395.67987,579.64197C395.70856,579.64197,395.73724,579.6992,395.73724,579.7852C395.73724,579.8569,395.6656,579.9285,395.5796,579.9285C395.50793,579.9285,395.4793,579.8569,395.52228,579.7852C395.56525,579.6992,395.6369,579.64197,395.67987,579.64197 Z M395.0924,579.82825C395.22137,579.82825,395.29303,579.8855,395.2787,579.95715C395.25006,580.0288,395.16406,580.0861,395.0924,580.0861C395.02075,580.0861,394.9348,580.0288,394.90613,579.95715C394.89185,579.8855,394.96344,579.82825,395.0924,579.82825 Z M397.52832,580.3584C397.64294,580.3584,397.74323,580.387,397.74323,580.4157C397.74323,580.44434,397.64294,580.50165,397.52832,580.55896C397.49158,580.57275,397.4563,580.57916,397.42532,580.57916C397.35968,580.57916,397.31335,580.55035,397.31335,580.50165C397.31335,580.4157,397.4137,580.3584,397.52832,580.3584 Z M388.15735,576.9195C388.20032,576.9195,388.32928,577.3207,388.41522,577.80786C388.48688,578.3094,388.6015,579.04016,388.64453,579.44135L388.7448,580.1864L387.91376,580.55896C387.5516,580.7236,387.31134,580.8168,387.15268,580.8168C386.89706,580.8168,386.8534,580.5748,386.8534,580.0001C386.8534,579.44135,387.91376,576.9195,388.15735,576.9195 Z M396.29602,580.64496C396.38202,580.64496,396.45367,580.7023,396.45367,580.7882C396.45367,580.85986,396.425,580.9315,396.39636,580.9315C396.35333,580.9315,396.28168,580.85986,396.2387,580.7882C396.19574,580.7023,396.22437,580.64496,396.29602,580.64496 Z M396.00946,581.0748C396.09546,581.0748,396.16705,581.13214,396.16705,581.21814C396.16705,581.28973,396.13843,581.3614,396.10974,581.3614C396.06677,581.3614,395.99512,581.28973,395.95215,581.21814C395.90918,581.13214,395.9378,581.0748,396.00946,581.0748 Z M394.9494,580.9546C395.0133,580.9546,395.12537,581.1634,395.30737,581.59064C395.46497,581.94885,395.56525,582.30707,395.50793,582.3787C395.45416,582.4648,395.37613,582.5044,395.29587,582.5044C395.16232,582.5044,395.02255,582.3947,394.97778,582.2068C394.94318,582.05975,394.9347,581.991,394.9618,581.98804L394.96573,581.98804C394.98428,581.98987,395.01624,582.0159,395.06378,582.0635C395.16833,582.168,395.25797,582.21893,395.3164,582.21893C395.3861,582.21893,395.41144,582.1465,395.3647,582.00616C395.30737,581.89154,395.19275,581.79126,395.07813,581.79126C394.94916,581.79126,394.8775,581.63367,394.8775,581.3614C394.8775,581.0919,394.8976,580.9546,394.9494,580.9546 Z M391.09473,582.3644C391.20935,582.3644,391.26666,582.42175,391.2237,582.5077C391.18066,582.57935,391.08038,582.651,390.99445,582.651C390.9228,582.651,390.86548,582.57935,390.86548,582.5077C390.86548,582.42175,390.96576,582.3644,391.09473,582.3644 Z M396.95514,581.3614C397.04114,581.3614,397.1844,581.49036,397.28473,581.64795C397.39548,581.8325,397.52145,581.92584,397.5999,581.92584C397.6737,581.92584,397.70544,581.8433,397.64294,581.67664C397.60925,581.57556,397.602,581.50964,397.62802,581.50665L397.632,581.50665C397.63864,581.5073,397.64706,581.51135,397.6573,581.51904C397.7146,581.5763,397.7862,581.79126,397.82922,582.00616C397.87173,582.2612,397.86694,582.35077,397.7564,582.35077C397.71793,582.35077,397.6666,582.3399,397.59998,582.3214C397.52908,582.30475,397.4752,582.29535,397.43613,582.29535C397.34106,582.29535,397.3342,582.35114,397.385,582.49335C397.42798,582.63666,397.37067,582.8373,397.25604,582.9232C397.18347,582.9837,397.1364,583.0161,397.1106,583.0161C397.07526,583.0161,397.07968,582.9554,397.1128,582.8229C397.1701,582.6223,397.06976,582.522,396.61127,582.3644C396.28168,582.2641,396.0238,582.12085,396.0238,582.0635C396.0238,581.9346,396.76886,581.37573,396.95514,581.3614 Z M391.38214,582.86053C391.4113,582.86053,391.44067,582.86694,391.4673,582.88025C391.55322,582.93756,391.55322,583.0235,391.45294,583.1238C391.39267,583.1841,391.33237,583.20984,391.28326,583.20984C391.1806,583.20984,391.12677,583.0973,391.2237,582.9519C391.25336,582.8925,391.31717,582.86053,391.38214,582.86053 Z M390.50912,582.72754C390.526,582.72754,390.53995,582.7305,390.55023,582.73694C390.57886,582.7513,390.52155,582.9089,390.4356,583.0808C390.35086,583.24255,390.2289,583.3256,390.12085,583.3256C390.02786,583.3256,389.9452,583.2641,389.90546,583.1382C389.86627,583.03375,390.3378,582.72754,390.50912,582.72754 Z M389.56152,583.2241C389.64752,583.2241,389.71918,583.28143,389.71918,583.36743C389.71918,583.4391,389.6905,583.5107,389.66187,583.5107C389.61884,583.5107,389.54724,583.4391,389.5042,583.36743C389.46124,583.28143,389.48993,583.2241,389.56152,583.2241 Z M395.46497,583.2241C395.55096,583.2241,395.56525,583.28143,395.52228,583.36743C395.4793,583.4391,395.3647,583.5107,395.29303,583.5107C395.20703,583.5107,395.19275,583.4391,395.23572,583.36743C395.2787,583.28143,395.3933,583.2241,395.46497,583.2241 Z M395.92355,582.9868C395.93842,582.9868,395.9575,583.0373,395.98077,583.1382C396.0128,583.25806,396.0403,583.31555,396.0758,583.31555C396.10394,583.31555,396.13705,583.2795,396.1814,583.2098C396.22543,583.1291,396.2657,583.0897,396.31372,583.0897C396.35953,583.0897,396.41238,583.1255,396.4823,583.19543C396.61127,583.3244,396.59692,583.36743,396.39636,583.36743C396.21008,583.36743,396.16705,583.4391,396.22437,583.61096C396.2596,583.71674,396.27405,583.77045,396.25745,583.77045C396.2403,583.77045,396.19006,583.71313,396.09546,583.5967C395.98077,583.4391,395.89484,583.2098,395.89484,583.09515C395.9014,583.02295,395.91098,582.9868,395.92355,582.9868 Z M395.77975,583.5159C395.83673,583.5159,395.8805,583.5546,395.8805,583.63965C395.8805,583.7113,395.7802,583.79724,395.67987,583.8403C395.63895,583.8566,395.6062,583.8648,395.58163,583.8648C395.52026,583.8648,395.51004,583.81366,395.55096,583.7113C395.60046,583.58746,395.70233,583.5159,395.77975,583.5159 Z M397.01044,583.7239C397.03662,583.7239,397.0662,583.72925,397.09845,583.74C397.21307,583.79724,397.31335,583.8403,397.31335,583.8689C397.31335,583.8976,397.21307,583.94055,397.09845,583.99786C397.0662,584.0086,397.03665,584.014,397.01044,584.014C396.93185,584.014,396.88348,583.96564,396.88348,583.8689C396.88348,583.7722,396.93185,583.7239,397.01044,583.7239 Z M391.75552,583.6927C391.7831,583.6927,391.83405,583.7533,391.92578,583.88324C392.0404,584.0265,392.11206,584.18414,392.08337,584.1985C392.06396,584.2179,392.04086,584.2266,392.0159,584.2266C391.89328,584.2266,391.72516,584.01636,391.72516,583.8259C391.72516,583.739,391.7314,583.6927,391.75552,583.6927 Z M394.75458,583.49817C394.89984,583.49817,395.02075,583.64325,395.02075,583.8689C395.02075,584.0695,394.97778,584.2271,394.90613,584.2271C394.74854,584.2271,394.44763,583.69696,394.5479,583.5967C394.61566,583.52893,394.68768,583.49817,394.75458,583.49817 Z M389.6153,583.9513C389.64035,583.9513,389.66183,583.9907,389.6905,584.0695C389.71918,584.1698,389.70483,584.2844,389.66187,584.3274C389.62918,584.3601,389.59723,584.37415,389.5689,584.37415C389.47314,584.37415,389.419,584.2133,389.51855,584.0695C389.56155,583.9907,389.5902,583.9513,389.6153,583.9513 Z M391.3658,577.7692C391.39838,577.77264,391.45013,577.85925,391.5246,577.99414C391.65356,578.2234,391.8971,578.56726,392.0691,578.75354C392.22668,578.9398,392.55627,579.1834,392.7998,579.2981C393.0291,579.4127,393.4876,579.7136,393.7885,579.98584L394.36163,580.4587L394.16107,581.2611C394.00342,581.9632,393.93182,582.0778,393.55927,582.1495C393.46594,582.17065,393.38644,582.1818,393.31705,582.1818C393.15198,582.1818,393.044,582.1187,392.9431,581.97754C392.8588,581.87445,392.80203,581.79895,392.77234,581.7956L392.7684,581.7956C392.71368,581.8024,392.7685,582.10974,392.92877,583.0808C393.0434,583.7543,393.1007,584.3274,393.05774,584.3704C393.05246,584.37573,393.04562,584.37823,393.03738,584.37823C392.91165,584.37823,392.46323,583.7887,392.35565,583.4391C392.29834,583.2958,392.16937,583.0808,392.0691,582.9662C391.95447,582.8659,391.86847,582.6796,391.86847,582.565C391.86847,582.46014,391.7965,582.39124,391.71844,582.39124C391.71118,582.39124,391.70386,582.39185,391.69653,582.39307C391.6898,582.3946,391.68326,582.3953,391.6769,582.3953C391.5617,582.3953,391.5095,582.14667,391.4959,581.5763C391.4959,581.10345,391.45294,580.0001,391.3813,579.14044C391.3149,578.13495,391.2987,577.77625,391.3619,577.7692 Z M390.19678,584.00653C390.30377,584.00653,390.3232,584.0982,390.24933,584.29877C390.19202,584.4134,390.09174,584.5137,390.00574,584.5137C389.8051,584.5137,389.81946,584.12683,390.0487,584.0409C390.10907,584.01825,390.15854,584.00653,390.19678,584.00653 Z M390.64127,583.8198C390.68036,583.8198,390.7112,583.9738,390.75085,584.29877C390.78018,584.58234,390.7828,584.6991,390.73145,584.6991C390.70752,584.6991,390.67194,584.6738,390.6219,584.6283C390.52155,584.528,390.47858,584.29877,390.52155,584.1125C390.57278,583.9204,390.6097,583.8198,390.64127,583.8198 Z M392.4989,584.5137C392.6136,584.5137,392.7425,584.57104,392.78552,584.6283C392.81415,584.68567,392.7282,584.7429,392.57056,584.7429C392.4273,584.7429,392.29834,584.68567,392.29834,584.6283C392.29834,584.57104,392.38428,584.5137,392.4989,584.5137 Z M392.3685,585.049C392.42813,585.049,392.51068,585.05707,392.6136,585.0725C393.01477,585.1298,393.0291,585.1585,392.7425,585.2015C392.6944,585.20886,392.64532,585.21246,392.59778,585.21246C392.46124,585.21246,392.33716,585.183,392.284,585.1298C392.22888,585.0747,392.2621,585.049,392.3685,585.049 Z M395.01956,584.8396C395.11493,584.8396,395.23145,584.91644,395.2787,585.0582C395.30737,585.1585,395.23572,585.2301,395.10675,585.2301C394.97778,585.2301,394.8775,585.1298,394.8775,585.00085C394.8775,584.8912,394.94144,584.8396,395.01956,584.8396 Z M394.2038,583.8572C394.23795,583.8572,394.26398,583.8898,394.29004,583.9549C394.31866,584.0552,394.23273,584.21277,394.10376,584.29877C393.9748,584.39905,393.8745,584.6427,393.8745,584.84326C393.8745,585.02954,393.77417,585.2301,393.65955,585.2875C393.62885,585.2967,393.60144,585.3013,393.57733,585.3013C393.4889,585.3013,393.44464,585.2394,393.44464,585.1155C393.44464,584.9866,393.4016,584.72864,393.35864,584.54236C393.287,584.29877,393.33002,584.2271,393.55927,584.2271C393.71686,584.2271,393.93182,584.12683,394.0321,583.99786C394.11026,583.90405,394.16284,583.8572,394.2038,583.8572 Z M394.19815,584.9536C394.26865,584.9536,394.36386,584.9808,394.4906,585.02954C394.69122,585.1012,394.67688,585.14417,394.47632,585.38776C394.32996,585.5607,394.22067,585.6472,394.14557,585.6472C394.0589,585.6472,394.01776,585.53204,394.01776,585.30176C394.01776,585.0559,394.06143,584.9536,394.19815,584.9536 Z M395.7706,585.6928C395.79446,585.69385,395.84454,585.71216,395.92346,585.746C396.06677,585.78894,396.13843,585.87494,396.09546,585.9179C396.0842,585.92914,396.06805,585.9345,396.04855,585.9345C395.99347,585.9345,395.9116,585.89166,395.83752,585.8176C395.7623,585.7341,395.73584,585.69434,395.76663,585.6928 Z M395.25006,585.8033C395.2787,585.8033,395.30737,585.8606,395.30737,585.94653C395.30737,586.0182,395.23572,586.08984,395.14972,586.08984C395.07813,586.08984,395.04944,586.0182,395.0924,585.94653C395.13544,585.8606,395.20703,585.8033,395.25006,585.8033 Z M374.71692,553.1517C374.16132,553.1517,373.65643,553.24146,373.26984,553.43475C372.55338,553.79297,371.8083,554.60974,371.34976,555.5554C371.0775,556.12854,371.03455,556.3865,371.0775,557.57574C371.17783,560.069,371.1635,560.7997,371.04886,561.1149C370.9895,561.27606,370.9954,561.3719,371.17038,561.50946L371.1667,561.50946Q370.95187,561.71014,370.6199,562.0738Q370.5704,562.1304,370.5183,562.1928C370.47446,562.175,370.43158,562.1596,370.38974,562.1466C370.16364,562.0812,370.0166,562.04535,369.8953,562.04535C369.72443,562.04535,369.60458,562.11633,369.38672,562.2756C369.1701,562.4315,369.04257,562.4984,368.8964,562.4984C368.8008,562.4984,368.69727,562.4698,368.55566,562.4188C368.38986,562.35565,368.211,562.32513,368.0266,562.32513C367.54166,562.32513,367.01825,562.53625,366.59265,562.92035C366.32037,563.16394,365.86188,563.5651,365.57532,563.7801C365.00214,564.2386,364.34302,565.4422,364.05646,566.60284C363.84152,567.44824,363.79852,570.74384,363.9275,575.415C364.0278,578.3954,364.0278,578.3954,365.40335,579.4557L366.26306,580.1148L366.16278,581.3614C366.0768,582.479,365.93353,583.5107,365.28873,587.7377C364.98782,589.7294,365.00214,590.4744,365.34604,590.5747C365.518,590.61774,365.64694,590.847,365.7329,591.2625C365.80457,591.60645,365.86188,594.7587,365.86188,598.2693C365.86188,602.6395,365.93353,605.06104,366.04816,605.94946C366.26306,607.454,366.16278,608.28503,365.48932,610.87854C365.0738,612.45465,365.04514,612.7269,364.9162,616.82495C364.84454,619.18915,364.72992,621.625,364.6726,622.2555C364.5866,623.11523,364.60095,623.41614,364.74423,623.55945C364.8589,623.6741,364.9305,624.1039,364.9305,624.6627C364.94482,625.68005,365.2314,626.6401,365.58963,626.855C365.7329,626.92664,366.16278,627.3279,366.56396,627.72906C367.27902,628.45496,367.904,628.74664,369.05203,628.74664C369.42233,628.74664,369.84705,628.7163,370.34674,628.6604C373.14087,628.3595,373.18384,627.61444,370.64764,624.6054C369.70197,623.4878,369.6733,623.4304,369.73062,622.78564C369.77362,622.4274,369.83093,621.2525,369.8739,620.17786C369.9742,617.31213,370.1175,616.3091,371.3211,610.09045C372.30978,604.8891,372.6537,602.81146,372.75397,601.135C372.79697,600.3899,372.8686,599.67346,372.9116,599.55884C372.9147,599.5482,372.92017,599.5431,372.92776,599.5431C373.09494,599.5431,374.3009,602.0129,374.60236,603.0407C374.71704,603.4419,374.81732,604.0294,374.81732,604.35895C374.81732,604.90344,374.71704,605.26166,374.02924,607.1531C373.84296,607.62585,373.75702,608.6719,373.64233,611.1651C373.5277,613.95917,373.44177,614.8905,373.08356,616.6243C372.81128,617.9712,372.66803,619.08887,372.68234,619.73364C372.69666,620.49304,372.625,620.9229,372.38144,621.5247C371.96588,622.5134,372.05188,622.64233,373.28412,623.0436C374.12567,623.3241,374.6949,623.4584,375.08755,623.4584C375.35678,623.4584,375.543,623.3952,375.67706,623.2728C375.8475,623.12067,376.0567,623.04346,376.3245,623.04346C376.68704,623.04346,377.15698,623.185,377.78333,623.47345C378.2992,623.71704,378.78638,623.9176,378.88666,623.9176C379.04425,623.9176,379.91833,622.32715,380.24786,621.4387C380.41986,620.99457,380.23358,620.751,379.43115,620.30676C378.68604,619.9056,378.48547,619.33246,378.42816,617.3694C378.3565,615.1914,378.48547,614.4177,379.48846,611.1221C379.7375,610.292,379.96732,609.4667,380.11935,608.8635L380.12314,608.8635L380.99963,609.4943Q381.15945,609.63574,381.77054,610.26794L381.76672,610.26794L381.76672,612.4117C381.76672,614.3317,381.69507,615.56396,381.5088,616.68164C381.3843,617.4285,381.15424,618.57666,380.93323,619.58484L380.92944,619.58484Q380.84003,619.78296,380.7545,619.9852L379.44644,623.9715L379.07294,624.5051C378.66788,625.05865,378.65723,625.2305,379.06494,625.46436L379.06116,625.46436Q378.98718,626.0849,379.07977,626.2173L380.43134,628.67975Q380.51038,628.77844,380.61203,628.84985L381.64795,629.5033L384.07422,630.6247Q385.15817,630.9092,386.3034,631.3355Q386.38364,631.3459,386.46973,631.3459Q386.6995,631.3459,386.971,631.27203L386.97488,631.27203Q387.02185,631.2881,387.07166,631.30316Q388.0184,631.19147,389.00345,630.81L389.00732,630.81Q389.03693,630.8194,389.06668,630.8289L389.06277,630.8289C389.04007,630.9045,389.06165,630.9282,389.1359,630.9282C389.1776,630.9282,389.23596,630.9207,389.31238,630.91077L389.31628,630.91077Q389.32922,630.9151,389.3422,630.91943Q389.65256,630.98486,389.91196,630.98486Q389.9419,630.98486,389.97113,630.984Q390.44156,630.9672,390.9577,630.8727Q392.53333,630.3862,392.956,630.3322Q393.19415,630.30853,393.43692,630.2872L393.44086,630.2872C393.48764,630.2981,393.53268,630.31,393.5736,630.3226C393.6608,630.34436,393.7241,630.3569,393.76797,630.3569C393.8126,630.3569,393.8371,630.34393,393.8462,630.31464L393.85013,630.31464L395.16217,630.7899Q396.01514,630.8438,397.25726,631.06036Q400.60416,631.0626,401.7334,631.2358Q402.5931,631.0413,404.84036,630.9355L404.84442,630.9355C404.86374,630.9376,404.88483,630.9387,404.9076,630.9387C404.9534,630.9387,404.99396,630.9346,405.02896,630.92706L405.0249,630.92706Q405.2394,630.91754,405.46594,630.9088L405.47,630.9088C405.51166,630.9278,405.55862,630.9387,405.60968,630.9387C405.6507,630.9387,405.6882,630.92816,405.7212,630.909L405.72525,630.909L408.6643,631.0711L410.21786,630.9808Q417.86194,631.7343,418.14313,631.9505Q418.27747,631.9586,418.65054,631.9586Q419.7905,631.9586,423.15945,631.88275Q425.0934,632.03625,426.0301,632.03625Q426.12543,632.03625,426.21042,632.03467L426.63696,632.0199Q427.50647,631.68555,432.92633,630.51575L432.93066,630.51575Q433.8119,630.6583,434.31802,630.6583Q434.3201,630.6583,434.32217,630.6583Q436.85294,630.46027,437.08713,630.3795Q437.89276,630.2531,438.68768,630.0614Q439.83133,629.84766,442.71677,628.6941Q443.45737,628.41675,444.17603,628.1184L444.18045,628.1184C444.20395,628.1829,444.25772,628.25555,444.31152,628.28784C444.34238,628.3033,444.36954,628.31134,444.3917,628.31134C444.4312,628.31134,444.45477,628.28564,444.45477,628.2306C444.45477,628.1754,444.42078,628.0947,444.3659,628.04095L444.36145,628.04095Q446.67648,627.0673,448.76166,625.87427Q449.86102,625.0843,450.8993,623.5903Q451.3736,622.99335,451.17703,622.2723Q450.9376,621.775,450.65445,621.3666L450.64993,621.3666Q450.46054,620.71423,449.9849,620.36304Q449.67557,620.0863,449.24945,619.88666Q446.9224,619.044,446.27377,618.7053L444.5048,618.515L440.7693,618.80475L436.96637,618.1739Q435.4387,618.03345,434.25275,618.0148L434.21494,618.01483Q433.90787,618.03973,433.62103,618.065L433.62103,618.065Q432.89246,617.9048,430.37012,617.498L426.71738,616.4569L422.63718,616.14734Q419.51614,615.55206,416.02463,615.18585Q410.35785,613.98584,409.90933,613.98584Q409.89377,613.98584,409.8845,613.9873Q409.54294,613.9645,409.094,613.9645Q408.61926,613.9645,408.0244,613.99C406.71997,613.62646,406.4377,613.484,406.19714,613.19977C405.60968,612.51196,403.03052,609.70355,400.1648,606.65155C395.73724,601.90875,392.84283,598.5128,390.9801,595.87634C390.47858,595.17426,389.93408,594.4578,389.7765,594.2859C389.33228,593.813,389.27496,593.26855,389.5042,592.1509C389.8051,590.7467,389.7765,588.6117,389.46124,587.5514C389.18903,586.72034,388.3866,585.3734,388.15735,585.3734C388.0857,585.3734,387.9997,585.1585,387.95673,584.9006C387.91376,584.657,387.8421,584.3131,387.7848,584.1411C387.71313,583.8976,387.7848,583.8259,388.28632,583.66833C388.48752,583.61084,388.65576,583.5816,388.79108,583.5816C389.12793,583.5816,389.26056,583.7629,389.18903,584.1411C389.10303,584.5567,389.232,584.6427,390.8941,585.2301C392.9145,585.93225,394.59094,586.37646,395.2787,586.37646C396.12408,586.37646,396.6256,585.96094,396.49664,585.3734C396.43933,585.0582,396.4823,584.9579,396.71155,584.8862C397.19873,584.72864,398.1444,583.6826,398.40234,583.00916C398.56,582.57935,398.6173,582.12085,398.57428,581.5763C398.51697,580.88855,398.43103,580.7023,397.97247,580.22943C397.56595,579.80597,397.2295,579.5927,396.9957,579.5927C396.83395,579.5927,396.7213,579.69476,396.66858,579.89984C396.61127,580.12915,396.65424,580.3297,396.7832,580.4587C396.85654,580.53204,396.90384,580.5715,396.9328,580.5715C396.97177,580.5715,396.97772,580.5002,396.96948,580.34406C396.95514,580.1721,397.05548,580.0001,397.1701,579.9715C397.23184,579.9509,397.2733,579.9396,397.29303,579.9388L397.29703,579.9388C397.32544,579.9401,397.2901,579.9727,397.1844,580.04315C397.06976,580.12915,397.0268,580.2724,397.06976,580.387C397.1128,580.50165,397.0841,580.6879,397.0268,580.80255C396.98914,580.8564,396.95145,580.8859,396.90466,580.8859C396.8269,580.8859,396.72394,580.8042,396.55396,580.61633L396.21008,580.2438L396.61127,579.4127C396.8405,578.95416,397.0268,578.45264,397.0268,578.29504C397.0268,578.13745,396.65424,577.53564,396.19574,576.93384C393.9748,574.0394,392.62787,571.3026,391.99744,568.4369C391.7395,567.2906,391.72516,566.96106,391.85413,566.0154C392.0404,564.6541,391.85413,562.6338,391.4673,561.903C391.08868,561.1589,390.484,560.75964,389.76175,560.75964C389.6913,560.75964,389.61978,560.7634,389.54724,560.77106C389.43597,560.785,389.32724,560.7921,389.21902,560.7921C388.88113,560.7921,388.548,560.72235,388.15735,560.57043C387.64148,560.38416,387.06836,560.2982,386.2373,560.2982C385.07666,560.2982,385.0337,560.3125,384.61816,560.7567C384.37457,561.01465,383.93036,561.5735,383.62946,561.989C383.32855,562.4188,382.8557,562.8917,382.5835,563.078C382.21094,563.30725,382.06763,563.5078,382.05328,563.8087C382.039,564.0523,381.93866,564.5968,381.85272,565.0267C381.58044,566.2446,381.5661,566.21594,382.31122,566.57416C382.91302,566.8607,383.05634,567.0184,383.42883,567.7921C383.84064,568.6706,383.9763,569.58856,383.70984,569.58856C383.69815,569.58856,383.68567,569.5868,383.67242,569.5832C383.57214,569.55457,382.5835,569.08167,381.48016,568.50854C380.14758,567.8351,379.08728,567.1616,378.32782,566.5312C377.6974,566.00104,377.00958,565.5425,376.79468,565.4995C376.68536,565.47766,376.5575,565.42615,376.44125,565.36194L376.4375,565.36194Q376.41257,565.3031,376.38596,565.24097Q376.2511,564.9673,376.0584,564.7762L375.75403,564.9176C375.57446,564.7081,375.18903,563.7503,375.27582,563.6511C375.28482,563.64514,375.3019,563.6423,375.3257,563.6423C375.41586,563.6423,375.60196,563.68335,375.80597,563.7514C376.01727,563.8262,376.2367,563.86035,376.44965,563.86035C377.1754,563.86035,377.82635,563.46313,377.82635,562.92035C377.82635,562.7484,377.898,562.5908,377.9696,562.5908C378.0556,562.5908,378.25623,562.3616,378.41382,562.0893C378.58575,561.817,378.80072,561.58777,378.901,561.58777C379.2019,561.58777,379.23053,561.28687,379.01563,560.47015C378.82935,559.78235,378.8437,559.68207,379.08728,559.32385C379.23053,559.1089,379.43115,558.47845,379.51715,557.9053C379.84668,555.928,379.7177,555.4121,378.67175,554.52374C377.68945,553.6731,376.0559,553.1517,374.71692,553.1517 Z"/> </g> </g> </svg>